<svg width="279" height="120" viewBox="0 0 279 120" fill="none" xmlns="http://www.w3.org/2000/svg">
<path d="M0.564667 12.6296C0.564667 6.06816 5.8838 0.749023 12.4453 0.749023H90.6885C101.273 0.749023 106.574 13.5461 99.0893 21.0305L68.3686 51.7512C63.7289 56.3909 63.7289 63.9133 68.3686 68.553L99.0893 99.2737C106.574 106.758 101.273 119.555 90.6885 119.555H12.4453C5.8838 119.555 0.564667 114.236 0.564667 107.675V12.6296Z" fill="url(#paint0_linear_111_467)"/>
<path d="M120.47 36.3033C120.348 35.0781 119.827 34.1263 118.905 33.4479C117.984 32.7695 116.733 32.4303 115.154 32.4303C114.08 32.4303 113.174 32.5822 112.435 32.8859C111.696 33.1796 111.129 33.5897 110.734 34.1162C110.349 34.6427 110.157 35.2401 110.157 35.9084C110.136 36.4653 110.253 36.9513 110.506 37.3665C110.769 37.7816 111.129 38.1411 111.584 38.4449C112.04 38.7385 112.567 38.9967 113.164 39.2195C113.761 39.4321 114.399 39.6143 115.078 39.7662L117.872 40.4345C119.229 40.7383 120.475 41.1433 121.609 41.6496C122.743 42.1559 123.725 42.7786 124.555 43.5177C125.386 44.2569 126.028 45.1277 126.484 46.1301C126.95 47.1326 127.188 48.2818 127.198 49.5779C127.188 51.4815 126.702 53.1319 125.74 54.5292C124.788 55.9164 123.411 56.9948 121.609 57.7644C119.816 58.5238 117.655 58.9035 115.123 58.9035C112.612 58.9035 110.425 58.5187 108.562 57.7492C106.709 56.9796 105.261 55.8405 104.218 54.3318C103.185 52.813 102.644 50.9347 102.593 48.6969H108.957C109.028 49.7399 109.326 50.6107 109.853 51.3093C110.39 51.9979 111.103 52.5193 111.995 52.8737C112.896 53.218 113.913 53.3901 115.047 53.3901C116.161 53.3901 117.128 53.2281 117.948 52.9041C118.779 52.5801 119.422 52.1295 119.877 51.5523C120.333 50.9752 120.561 50.312 120.561 49.5627C120.561 48.864 120.353 48.2767 119.938 47.8008C119.533 47.3249 118.936 46.9199 118.146 46.5858C117.366 46.2516 116.409 45.9479 115.275 45.6745L111.888 44.8239C109.266 44.186 107.195 43.1887 105.676 41.8318C104.157 40.475 103.403 38.6474 103.413 36.3489C103.403 34.4655 103.904 32.8201 104.917 31.4127C105.939 30.0052 107.342 28.9066 109.124 28.1168C110.906 27.327 112.931 26.9321 115.199 26.9321C117.508 26.9321 119.523 27.327 121.244 28.1168C122.976 28.9066 124.322 30.0052 125.284 31.4127C126.246 32.8201 126.742 34.4503 126.773 36.3033H120.47Z" fill="#333745"/>
<path d="M137.97 44.9758V58.463H131.5V27.3574H137.788V39.2498H138.061C138.588 37.8728 139.438 36.7944 140.613 36.0147C141.788 35.2249 143.261 34.83 145.033 34.83C146.653 34.83 148.065 35.1844 149.27 35.8932C150.485 36.5919 151.427 37.5994 152.095 38.9157C152.774 40.2219 153.108 41.7863 153.098 43.6089V58.463H146.628V44.7632C146.638 43.3254 146.273 42.2065 145.534 41.4066C144.805 40.6066 143.782 40.2067 142.466 40.2067C141.585 40.2067 140.805 40.394 140.127 40.7687C139.459 41.1433 138.932 41.6901 138.547 42.409C138.173 43.1178 137.98 43.9734 137.97 44.9758Z" fill="#333745"/>
<path d="M168.73 58.9187C166.371 58.9187 164.331 58.4174 162.609 57.415C160.898 56.4025 159.577 54.995 158.645 53.1927C157.714 51.3802 157.248 49.2792 157.248 46.8895C157.248 44.4797 157.714 42.3736 158.645 40.5712C159.577 38.7587 160.898 37.3513 162.609 36.3489C164.331 35.3363 166.371 34.83 168.73 34.83C171.09 34.83 173.125 35.3363 174.836 36.3489C176.557 37.3513 177.884 38.7587 178.815 40.5712C179.747 42.3736 180.213 44.4797 180.213 46.8895C180.213 49.2792 179.747 51.3802 178.815 53.1927C177.884 54.995 176.557 56.4025 174.836 57.415C173.125 58.4174 171.09 58.9187 168.73 58.9187ZM168.761 53.9065C169.834 53.9065 170.73 53.6028 171.449 52.9952C172.168 52.3776 172.71 51.5372 173.074 50.474C173.449 49.4108 173.636 48.2008 173.636 46.844C173.636 45.4872 173.449 44.2772 173.074 43.214C172.71 42.1508 172.168 41.3104 171.449 40.6927C170.73 40.0751 169.834 39.7662 168.761 39.7662C167.677 39.7662 166.766 40.0751 166.027 40.6927C165.298 41.3104 164.746 42.1508 164.371 43.214C164.007 44.2772 163.825 45.4872 163.825 46.844C163.825 48.2008 164.007 49.4108 164.371 50.474C164.746 51.5372 165.298 52.3776 166.027 52.9952C166.766 53.6028 167.677 53.9065 168.761 53.9065Z" fill="#333745"/>
<path d="M184.42 58.463V35.1338H190.693V39.2043H190.936C191.361 37.7563 192.075 36.6628 193.077 35.9236C194.08 35.1743 195.234 34.7997 196.54 34.7997C196.864 34.7997 197.213 34.8199 197.588 34.8604C197.963 34.9009 198.292 34.9566 198.575 35.0275V40.7687C198.272 40.6775 197.851 40.5965 197.315 40.5256C196.778 40.4548 196.287 40.4193 195.841 40.4193C194.89 40.4193 194.039 40.6269 193.29 41.042C192.551 41.4471 191.963 42.0141 191.528 42.7431C191.103 43.4722 190.89 44.3126 190.89 45.2644V58.463H184.42Z" fill="#333745"/>
<path d="M215.499 35.1338V39.9941H201.45V35.1338H215.499ZM204.639 29.5445H211.109V51.2941C211.109 51.8915 211.201 52.3573 211.383 52.6915C211.565 53.0155 211.818 53.2433 212.142 53.3749C212.476 53.5066 212.861 53.5724 213.297 53.5724C213.6 53.5724 213.904 53.5471 214.208 53.4964C214.512 53.4357 214.745 53.3901 214.907 53.3597L215.924 58.1744C215.6 58.2757 215.144 58.3921 214.557 58.5238C213.97 58.6655 213.256 58.7516 212.416 58.782C210.856 58.8427 209.489 58.6351 208.315 58.1592C207.15 57.6833 206.244 56.9442 205.596 55.9418C204.948 54.9393 204.629 53.6736 204.639 52.1447V29.5445Z" fill="#333745"/>
<path d="M238.832 41.7863L232.908 42.1508C232.807 41.6445 232.589 41.1889 232.255 40.7838C231.921 40.3687 231.481 40.0396 230.934 39.7966C230.397 39.5435 229.754 39.4169 229.005 39.4169C228.003 39.4169 227.157 39.6295 226.469 40.0548C225.78 40.47 225.436 41.0269 225.436 41.7255C225.436 42.2824 225.659 42.7533 226.104 43.138C226.55 43.5228 227.314 43.8316 228.398 44.0645L232.62 44.9151C234.888 45.3808 236.579 46.1301 237.693 47.1629C238.807 48.1957 239.363 49.5525 239.363 51.2334C239.363 52.7623 238.913 54.104 238.012 55.2583C237.121 56.4126 235.895 57.3138 234.336 57.9618C232.787 58.5997 231 58.9187 228.975 58.9187C225.886 58.9187 223.426 58.2757 221.593 56.9897C219.771 55.6937 218.702 53.9318 218.388 51.7042L224.752 51.3701C224.945 52.3118 225.41 53.0307 226.15 53.5268C226.889 54.0128 227.836 54.2559 228.99 54.2559C230.124 54.2559 231.035 54.0382 231.724 53.6028C232.422 53.1572 232.777 52.5851 232.787 51.8865C232.777 51.2992 232.529 50.8182 232.043 50.4436C231.557 50.0588 230.807 49.7652 229.795 49.5627L225.755 48.7577C223.477 48.302 221.78 47.5123 220.667 46.3883C219.563 45.2644 219.011 43.8316 219.011 42.09C219.011 40.5915 219.416 39.3005 220.226 38.217C221.046 37.1336 222.196 36.2982 223.674 35.711C225.162 35.1237 226.904 34.83 228.899 34.83C231.845 34.83 234.164 35.4528 235.855 36.6982C237.556 37.9436 238.548 39.6397 238.832 41.7863Z" fill="#333745"/>
<path d="M131.041 72.7012H124.388C124.267 71.8405 124.019 71.076 123.644 70.4078C123.269 69.7293 122.788 69.1522 122.201 68.6763C121.614 68.2004 120.935 67.8359 120.166 67.5827C119.406 67.3296 118.581 67.203 117.69 67.203C116.08 67.203 114.678 67.603 113.483 68.4029C112.288 69.1927 111.362 70.347 110.704 71.8658C110.045 73.3745 109.716 75.2073 109.716 77.364C109.716 79.5815 110.045 81.4446 110.704 82.9533C111.372 84.462 112.303 85.6011 113.498 86.3706C114.693 87.1402 116.075 87.525 117.645 87.525C118.525 87.525 119.341 87.4085 120.09 87.1756C120.849 86.9427 121.523 86.6035 122.11 86.158C122.697 85.7024 123.183 85.1505 123.568 84.5025C123.963 83.8545 124.236 83.1153 124.388 82.285L131.041 82.3154C130.868 83.7431 130.438 85.1201 129.75 86.4466C129.071 87.7629 128.155 88.9425 127.001 89.9855C125.856 91.0183 124.489 91.8384 122.9 92.446C121.32 93.0434 119.533 93.3421 117.538 93.3421C114.764 93.3421 112.283 92.7143 110.096 91.4587C107.919 90.2032 106.198 88.3856 104.932 86.0061C103.676 83.6266 103.049 80.7459 103.049 77.364C103.049 73.9719 103.687 71.0862 104.962 68.7067C106.238 66.3272 107.97 64.5147 110.157 63.2693C112.344 62.0137 114.804 61.3859 117.538 61.3859C119.341 61.3859 121.011 61.639 122.55 62.1453C124.1 62.6516 125.472 63.3908 126.666 64.3628C127.861 65.3247 128.833 66.5044 129.583 67.9017C130.342 69.299 130.828 70.8988 131.041 72.7012Z" fill="#333745"/>
<path d="M135.635 92.9168V69.5876H141.908V73.6581H142.151C142.576 72.2101 143.29 71.1165 144.292 70.3774C145.295 69.6281 146.449 69.2534 147.755 69.2534C148.079 69.2534 148.429 69.2737 148.803 69.3142C149.178 69.3547 149.507 69.4104 149.791 69.4813V75.2224C149.487 75.1313 149.067 75.0503 148.53 74.9794C147.993 74.9086 147.502 74.8731 147.057 74.8731C146.105 74.8731 145.254 75.0807 144.505 75.4958C143.766 75.9009 143.179 76.4679 142.743 77.1969C142.318 77.926 142.105 78.7664 142.105 79.7182V92.9168H135.635Z" fill="#333745"/>
<path d="M162.682 93.3724C160.282 93.3724 158.216 92.8864 156.485 91.9144C154.763 90.9322 153.437 89.545 152.505 87.7528C151.574 85.9504 151.108 83.819 151.108 81.3585C151.108 78.9588 151.574 76.8526 152.505 75.0402C153.437 73.2277 154.748 71.8152 156.439 70.8027C158.14 69.7901 160.135 69.2838 162.423 69.2838C163.962 69.2838 165.395 69.5319 166.722 70.028C168.058 70.5141 169.223 71.2482 170.215 72.2304C171.217 73.2125 171.997 74.4478 172.554 75.9363C173.111 77.4146 173.389 79.1461 173.389 81.1307V82.9077H153.69V78.898H167.299C167.299 77.9665 167.096 77.1412 166.691 76.4223C166.286 75.7034 165.724 75.1414 165.005 74.7364C164.297 74.3213 163.471 74.1137 162.53 74.1137C161.548 74.1137 160.677 74.3415 159.917 74.7972C159.168 75.2427 158.581 75.8452 158.156 76.6046C157.73 77.3539 157.513 78.1892 157.502 79.1106V82.9229C157.502 84.0772 157.715 85.0746 158.14 85.915C158.576 86.7554 159.188 87.4035 159.978 87.8591C160.768 88.3147 161.705 88.5426 162.788 88.5426C163.507 88.5426 164.165 88.4413 164.762 88.2388C165.36 88.0363 165.871 87.7325 166.296 87.3275C166.722 86.9225 167.046 86.4263 167.268 85.8391L173.253 86.2339C172.949 87.6718 172.326 88.9273 171.384 90.0006C170.453 91.0638 169.248 91.8941 167.77 92.4915C166.301 93.0788 164.605 93.3724 162.682 93.3724Z" fill="#333745"/>
<path d="M184.264 93.3573C182.776 93.3573 181.449 93.0991 180.285 92.5826C179.12 92.0561 178.199 91.2815 177.521 90.2588C176.852 89.226 176.518 87.9401 176.518 86.401C176.518 85.1049 176.756 84.0165 177.232 83.1355C177.708 82.2546 178.356 81.5458 179.176 81.0092C179.996 80.4725 180.928 80.0675 181.971 79.7941C183.024 79.5207 184.127 79.3283 185.282 79.217C186.639 79.0752 187.732 78.9436 188.562 78.8221C189.393 78.6904 189.995 78.498 190.37 78.2449C190.744 77.9918 190.932 77.6171 190.932 77.121V77.0298C190.932 76.0679 190.628 75.3237 190.021 74.7972C189.423 74.2706 188.573 74.0074 187.469 74.0074C186.304 74.0074 185.378 74.2656 184.689 74.782C184.001 75.2883 183.545 75.9262 183.322 76.6957L177.338 76.2097C177.642 74.7921 178.239 73.5669 179.131 72.5341C180.022 71.4912 181.171 70.6913 182.578 70.1344C183.996 69.5673 185.636 69.2838 187.499 69.2838C188.795 69.2838 190.036 69.4357 191.22 69.7395C192.415 70.0432 193.473 70.5141 194.395 71.152C195.326 71.7899 196.06 72.6101 196.597 73.6125C197.134 74.6048 197.402 75.7945 197.402 77.1817V92.9168H191.266V89.6817H191.084C190.709 90.4107 190.208 91.0537 189.58 91.6106C188.952 92.1574 188.198 92.5877 187.317 92.9016C186.436 93.2054 185.418 93.3573 184.264 93.3573ZM186.117 88.8919C187.069 88.8919 187.909 88.7046 188.638 88.3299C189.367 87.9452 189.94 87.4288 190.355 86.7807C190.77 86.1327 190.977 85.3986 190.977 84.5784V82.1027C190.775 82.2344 190.496 82.3559 190.142 82.4673C189.798 82.5685 189.408 82.6647 188.973 82.7558C188.537 82.8368 188.102 82.9128 187.666 82.9837C187.231 83.0444 186.836 83.1001 186.482 83.1507C185.722 83.2621 185.059 83.4393 184.492 83.6823C183.925 83.9253 183.485 84.2544 183.171 84.6696C182.857 85.0746 182.7 85.5809 182.7 86.1884C182.7 87.0693 183.019 87.7427 183.657 88.2084C184.305 88.6641 185.125 88.8919 186.117 88.8919Z" fill="#333745"/>
<path d="M214.831 69.5876V74.4478H200.781V69.5876H214.831ZM203.971 63.9983H210.441V85.7479C210.441 86.3453 210.532 86.8111 210.715 87.1452C210.897 87.4693 211.15 87.6971 211.474 87.8287C211.808 87.9604 212.193 88.0262 212.628 88.0262C212.932 88.0262 213.236 88.0009 213.54 87.9502C213.843 87.8895 214.076 87.8439 214.238 87.8135L215.256 92.6282C214.932 92.7295 214.476 92.8459 213.889 92.9775C213.302 93.1193 212.588 93.2054 211.747 93.2357C210.188 93.2965 208.821 93.0889 207.647 92.613C206.482 92.1371 205.576 91.398 204.928 90.3955C204.28 89.3931 203.961 88.1274 203.971 86.5985V63.9983Z" fill="#333745"/>
<path d="M219.045 92.9168V69.5876H225.516V92.9168H219.045ZM222.296 66.5803C221.334 66.5803 220.508 66.2614 219.82 65.6234C219.142 64.9754 218.802 64.2008 218.802 63.2996C218.802 62.4086 219.142 61.6441 219.82 61.0062C220.508 60.3582 221.334 60.0342 222.296 60.0342C223.258 60.0342 224.078 60.3582 224.756 61.0062C225.445 61.6441 225.789 62.4086 225.789 63.2996C225.789 64.2008 225.445 64.9754 224.756 65.6234C224.078 66.2614 223.258 66.5803 222.296 66.5803Z" fill="#333745"/>
<path d="M241.239 93.3724C238.88 93.3724 236.84 92.8712 235.118 91.8688C233.407 90.8563 232.086 89.4488 231.154 87.6465C230.223 85.834 229.757 83.7329 229.757 81.3433C229.757 78.9334 230.223 76.8273 231.154 75.025C232.086 73.2125 233.407 71.8051 235.118 70.8027C236.84 69.7901 238.88 69.2838 241.239 69.2838C243.598 69.2838 245.634 69.7901 247.345 70.8027C249.066 71.8051 250.393 73.2125 251.324 75.025C252.256 76.8273 252.722 78.9334 252.722 81.3433C252.722 83.7329 252.256 85.834 251.324 87.6465C250.393 89.4488 249.066 90.8563 247.345 91.8688C245.634 92.8712 243.598 93.3724 241.239 93.3724ZM241.27 88.3603C242.343 88.3603 243.239 88.0565 243.958 87.449C244.677 86.8314 245.219 85.9909 245.583 84.9278C245.958 83.8646 246.145 82.6546 246.145 81.2978C246.145 79.9409 245.958 78.7309 245.583 77.6678C245.219 76.6046 244.677 75.7642 243.958 75.1465C243.239 74.5288 242.343 74.22 241.27 74.22C240.186 74.22 239.275 74.5288 238.536 75.1465C237.807 75.7642 237.255 76.6046 236.88 77.6678C236.516 78.7309 236.333 79.9409 236.333 81.2978C236.333 82.6546 236.516 83.8646 236.88 84.9278C237.255 85.9909 237.807 86.8314 238.536 87.449C239.275 88.0565 240.186 88.3603 241.27 88.3603Z" fill="#333745"/>
<path d="M263.399 79.4296V92.9168H256.929V69.5876H263.095V73.7036H263.369C263.885 72.3468 264.751 71.2735 265.966 70.4837C267.181 69.6838 268.654 69.2838 270.386 69.2838C272.006 69.2838 273.418 69.6382 274.623 70.347C275.828 71.0558 276.765 72.0683 277.433 73.3847C278.101 74.6909 278.435 76.2502 278.435 78.0627V92.9168H271.965V79.217C271.975 77.7893 271.611 76.6755 270.872 75.8755C270.132 75.0655 269.115 74.6605 267.819 74.6605C266.948 74.6605 266.178 74.8478 265.51 75.2224C264.852 75.5971 264.336 76.1439 263.961 76.8628C263.596 77.5716 263.409 78.4272 263.399 79.4296Z" fill="#333745"/>
<defs>
<linearGradient id="paint0_linear_111_467" x1="0.564667" y1="0.749023" x2="118.007" y2="101.606" gradientUnits="userSpaceOnUse">
<stop stop-color="#E63462"/>
<stop offset="1" stop-color="#BD284F"/>
</linearGradient>
</defs>
</svg>
