<svg width="181" height="110" viewBox="0 0 181 110" fill="none" xmlns="http://www.w3.org/2000/svg">
<path d="M62.053 11.6C62.053 7.95492 65.0246 5 68.6903 5H112.402C118.316 5 121.277 12.1091 117.096 16.2669L99.9329 33.3331C97.3409 35.9106 97.3409 40.0894 99.9329 42.6669L117.096 59.7331C121.277 63.8909 118.316 71 112.402 71H68.6903C65.0246 71 62.053 68.0451 62.053 64.4V11.6Z" fill="url(#paint0_linear_2_52)"/>
<path d="M11.5388 91.5653C11.4706 90.8778 11.178 90.3437 10.6609 89.9631C10.1439 89.5824 9.44218 89.392 8.55582 89.392C7.95355 89.392 7.44502 89.4773 7.03025 89.6477C6.61548 89.8125 6.2973 90.0426 6.07571 90.3381C5.8598 90.6335 5.75184 90.9688 5.75184 91.3438C5.74048 91.6562 5.80582 91.929 5.94787 92.1619C6.09559 92.3949 6.2973 92.5966 6.55298 92.767C6.80866 92.9318 7.10412 93.0767 7.43934 93.2017C7.77457 93.321 8.13252 93.4233 8.51321 93.5085L10.0814 93.8835C10.8428 94.054 11.5416 94.2812 12.178 94.5653C12.8143 94.8494 13.3655 95.1989 13.8314 95.6136C14.2973 96.0284 14.6581 96.517 14.9138 97.0795C15.1751 97.642 15.3087 98.2869 15.3143 99.0142C15.3087 100.082 15.0359 101.009 14.4962 101.793C13.9621 102.571 13.1893 103.176 12.178 103.608C11.1723 104.034 9.95923 104.247 8.53877 104.247C7.12968 104.247 5.90241 104.031 4.85696 103.599C3.81718 103.168 3.00468 102.528 2.41946 101.682C1.83991 100.83 1.53593 99.7756 1.50752 98.5199H5.07855C5.11832 99.1051 5.28593 99.5937 5.58139 99.9858C5.88252 100.372 6.28309 100.665 6.78309 100.864C7.28877 101.057 7.8598 101.153 8.49616 101.153C9.12116 101.153 9.66377 101.062 10.124 100.881C10.5899 100.699 10.9507 100.446 11.2064 100.122C11.4621 99.7983 11.5899 99.4261 11.5899 99.0057C11.5899 98.6136 11.4734 98.2841 11.2405 98.017C11.0132 97.75 10.678 97.5227 10.2348 97.3352C9.7973 97.1477 9.26037 96.9773 8.624 96.8239L6.72343 96.3466C5.25184 95.9886 4.08991 95.429 3.23764 94.6676C2.38536 93.9062 1.96207 92.8807 1.96775 91.5909C1.96207 90.5341 2.24332 89.6108 2.8115 88.821C3.38536 88.0312 4.1723 87.4148 5.1723 86.9716C6.1723 86.5284 7.30866 86.3068 8.58139 86.3068C9.87684 86.3068 11.0075 86.5284 11.9734 86.9716C12.945 87.4148 13.7007 88.0312 14.2405 88.821C14.7803 89.6108 15.0587 90.5256 15.0757 91.5653H11.5388ZM21.3591 96.4318V104H17.7284V86.5455H21.2568V93.2188H21.4102C21.7057 92.446 22.183 91.8409 22.842 91.4034C23.5011 90.9602 24.3278 90.7386 25.3222 90.7386C26.2312 90.7386 27.0239 90.9375 27.7 91.3352C28.3818 91.7273 28.9102 92.2926 29.2852 93.0312C29.6659 93.7642 29.8534 94.642 29.8477 95.6648V104H26.217V96.3125C26.2227 95.5057 26.0182 94.8778 25.6034 94.429C25.1943 93.9801 24.6205 93.7557 23.8818 93.7557C23.3875 93.7557 22.95 93.8608 22.5693 94.071C22.1943 94.2812 21.8989 94.5881 21.683 94.9915C21.4727 95.3892 21.3648 95.8693 21.3591 96.4318ZM38.6197 104.256C37.2959 104.256 36.151 103.974 35.1851 103.412C34.2249 102.844 33.4834 102.054 32.9606 101.043C32.4379 100.026 32.1766 98.8466 32.1766 97.5057C32.1766 96.1534 32.4379 94.9716 32.9606 93.9602C33.4834 92.9432 34.2249 92.1534 35.1851 91.5909C36.151 91.0227 37.2959 90.7386 38.6197 90.7386C39.9436 90.7386 41.0856 91.0227 42.0459 91.5909C43.0118 92.1534 43.7561 92.9432 44.2788 93.9602C44.8016 94.9716 45.0629 96.1534 45.0629 97.5057C45.0629 98.8466 44.8016 100.026 44.2788 101.043C43.7561 102.054 43.0118 102.844 42.0459 103.412C41.0856 103.974 39.9436 104.256 38.6197 104.256ZM38.6368 101.443C39.2391 101.443 39.7419 101.273 40.1453 100.932C40.5487 100.585 40.8527 100.114 41.0572 99.517C41.2675 98.9205 41.3726 98.2415 41.3726 97.4801C41.3726 96.7188 41.2675 96.0398 41.0572 95.4432C40.8527 94.8466 40.5487 94.375 40.1453 94.0284C39.7419 93.6818 39.2391 93.5085 38.6368 93.5085C38.0288 93.5085 37.5175 93.6818 37.1027 94.0284C36.6936 94.375 36.3839 94.8466 36.1737 95.4432C35.9692 96.0398 35.8669 96.7188 35.8669 97.4801C35.8669 98.2415 35.9692 98.9205 36.1737 99.517C36.3839 100.114 36.6936 100.585 37.1027 100.932C37.5175 101.273 38.0288 101.443 38.6368 101.443ZM47.4237 104V90.9091H50.9436V93.1932H51.08C51.3186 92.3807 51.7192 91.767 52.2817 91.3523C52.8442 90.9318 53.4919 90.7216 54.2249 90.7216C54.4067 90.7216 54.6027 90.733 54.8129 90.7557C55.0231 90.7784 55.2078 90.8097 55.3669 90.8494V94.071C55.1964 94.0199 54.9606 93.9744 54.6595 93.9347C54.3584 93.8949 54.0828 93.875 53.8328 93.875C53.2987 93.875 52.8214 93.9915 52.401 94.2244C51.9862 94.4517 51.6567 94.7699 51.4124 95.179C51.1737 95.5881 51.0544 96.0597 51.0544 96.5938V104H47.4237ZM64.8633 90.9091V93.6364H56.9798V90.9091H64.8633ZM58.7696 87.7727H62.4003V99.9773C62.4003 100.312 62.4514 100.574 62.5537 100.761C62.656 100.943 62.798 101.071 62.9798 101.145C63.1673 101.219 63.3832 101.256 63.6276 101.256C63.798 101.256 63.9685 101.241 64.1389 101.213C64.3094 101.179 64.4401 101.153 64.531 101.136L65.102 103.838C64.9202 103.895 64.6645 103.96 64.3349 104.034C64.0054 104.114 63.6048 104.162 63.1332 104.179C62.2582 104.213 61.4912 104.097 60.8321 103.83C60.1787 103.562 59.6702 103.148 59.3065 102.585C58.9429 102.023 58.7639 101.312 58.7696 100.455V87.7727ZM77.9564 94.642L74.6325 94.8466C74.5757 94.5625 74.4535 94.3068 74.266 94.0795C74.0785 93.8466 73.8314 93.6619 73.5246 93.5256C73.2234 93.3835 72.8626 93.3125 72.4422 93.3125C71.8797 93.3125 71.4053 93.4318 71.0189 93.6705C70.6325 93.9034 70.4393 94.2159 70.4393 94.608C70.4393 94.9205 70.5643 95.1847 70.8143 95.4006C71.0643 95.6165 71.4933 95.7898 72.1013 95.9205L74.4706 96.3977C75.7433 96.6591 76.6922 97.0795 77.3172 97.6591C77.9422 98.2386 78.2547 99 78.2547 99.9432C78.2547 100.801 78.0018 101.554 77.4962 102.202C76.9962 102.849 76.3087 103.355 75.4337 103.719C74.5643 104.077 73.5615 104.256 72.4251 104.256C70.6922 104.256 69.3115 103.895 68.2831 103.173C67.2604 102.446 66.6609 101.457 66.4848 100.207L70.0558 100.02C70.1638 100.548 70.4251 100.952 70.8399 101.23C71.2547 101.503 71.7859 101.639 72.4337 101.639C73.07 101.639 73.5814 101.517 73.9678 101.273C74.3598 101.023 74.5587 100.702 74.5643 100.31C74.5587 99.9801 74.4195 99.7102 74.1467 99.5C73.874 99.2841 73.4535 99.1193 72.8854 99.0057L70.6183 98.554C69.3399 98.2983 68.3882 97.8551 67.7632 97.2244C67.1439 96.5937 66.8342 95.7898 66.8342 94.8125C66.8342 93.9716 67.0615 93.2472 67.516 92.6392C67.9763 92.0312 68.6212 91.5625 69.4507 91.233C70.2859 90.9034 71.2632 90.7386 72.3825 90.7386C74.0359 90.7386 75.3371 91.0881 76.2859 91.7869C77.2405 92.4858 77.7973 93.4375 77.9564 94.642ZM96.0097 92.6562H92.2767C92.2085 92.1733 92.0693 91.7443 91.8591 91.3693C91.6489 90.9886 91.379 90.6648 91.0494 90.3977C90.7199 90.1307 90.3392 89.9261 89.9074 89.7841C89.4812 89.642 89.0182 89.571 88.5182 89.571C87.6148 89.571 86.8278 89.7955 86.1574 90.2443C85.4869 90.6875 84.967 91.3352 84.5977 92.1875C84.2284 93.0341 84.0437 94.0625 84.0437 95.2727C84.0437 96.517 84.2284 97.5625 84.5977 98.4091C84.9727 99.2557 85.4955 99.8949 86.1659 100.327C86.8364 100.759 87.6119 100.974 88.4926 100.974C88.9869 100.974 89.4443 100.909 89.8648 100.778C90.2909 100.648 90.6687 100.457 90.9983 100.207C91.3278 99.9517 91.6006 99.642 91.8165 99.2784C92.0381 98.9148 92.1915 98.5 92.2767 98.0341L96.0097 98.0511C95.9131 98.8523 95.6716 99.625 95.2852 100.369C94.9045 101.108 94.3903 101.77 93.7426 102.355C93.1006 102.935 92.3335 103.395 91.4415 103.736C90.5551 104.071 89.5523 104.239 88.433 104.239C86.8761 104.239 85.4841 103.886 84.2568 103.182C83.0352 102.477 82.0693 101.457 81.3591 100.122C80.6545 98.7869 80.3023 97.1705 80.3023 95.2727C80.3023 93.3693 80.6602 91.75 81.3761 90.4148C82.092 89.0795 83.0636 88.0625 84.2909 87.3636C85.5182 86.6591 86.8989 86.3068 88.433 86.3068C89.4443 86.3068 90.3818 86.4489 91.2455 86.733C92.1148 87.017 92.8847 87.4318 93.5551 87.9773C94.2256 88.517 94.771 89.179 95.1915 89.9631C95.6176 90.7472 95.8903 91.6449 96.0097 92.6562ZM98.5878 104V90.9091H102.108V93.1932H102.244C102.483 92.3807 102.883 91.767 103.446 91.3523C104.008 90.9318 104.656 90.7216 105.389 90.7216C105.571 90.7216 105.767 90.733 105.977 90.7557C106.187 90.7784 106.372 90.8097 106.531 90.8494V94.071C106.361 94.0199 106.125 93.9744 105.824 93.9347C105.522 93.8949 105.247 93.875 104.997 93.875C104.463 93.875 103.986 93.9915 103.565 94.2244C103.15 94.4517 102.821 94.7699 102.576 95.179C102.338 95.5881 102.218 96.0597 102.218 96.5938V104H98.5878ZM113.765 104.256C112.418 104.256 111.259 103.983 110.287 103.438C109.321 102.886 108.577 102.108 108.054 101.102C107.532 100.091 107.27 98.8949 107.27 97.5142C107.27 96.1676 107.532 94.9858 108.054 93.9688C108.577 92.9517 109.313 92.1591 110.262 91.5909C111.216 91.0227 112.336 90.7386 113.62 90.7386C114.483 90.7386 115.287 90.8778 116.032 91.1562C116.782 91.429 117.435 91.8409 117.992 92.392C118.554 92.9432 118.992 93.6364 119.304 94.4716C119.617 95.3011 119.773 96.2727 119.773 97.3864V98.3835H108.719V96.1335H116.356C116.356 95.6108 116.242 95.1477 116.015 94.7443C115.787 94.3409 115.472 94.0256 115.069 93.7983C114.671 93.5653 114.208 93.4489 113.679 93.4489C113.128 93.4489 112.64 93.5767 112.213 93.8324C111.793 94.0824 111.463 94.4205 111.225 94.8466C110.986 95.267 110.864 95.7358 110.858 96.2528V98.392C110.858 99.0398 110.978 99.5994 111.216 100.071C111.461 100.543 111.804 100.906 112.248 101.162C112.691 101.418 113.216 101.545 113.824 101.545C114.228 101.545 114.597 101.489 114.932 101.375C115.267 101.261 115.554 101.091 115.793 100.864C116.032 100.636 116.213 100.358 116.338 100.028L119.696 100.25C119.526 101.057 119.177 101.761 118.648 102.364C118.125 102.96 117.449 103.426 116.62 103.761C115.796 104.091 114.844 104.256 113.765 104.256ZM125.875 104.247C125.04 104.247 124.296 104.102 123.642 103.812C122.989 103.517 122.472 103.082 122.091 102.509C121.716 101.929 121.529 101.207 121.529 100.344C121.529 99.6165 121.662 99.0057 121.929 98.5114C122.196 98.017 122.56 97.6193 123.02 97.3182C123.481 97.017 124.003 96.7898 124.588 96.6364C125.179 96.483 125.799 96.375 126.446 96.3125C127.208 96.233 127.821 96.1591 128.287 96.0909C128.753 96.017 129.091 95.9091 129.302 95.767C129.512 95.625 129.617 95.4148 129.617 95.1364V95.0852C129.617 94.5455 129.446 94.1278 129.106 93.8324C128.77 93.5369 128.293 93.3892 127.674 93.3892C127.02 93.3892 126.5 93.5341 126.114 93.8239C125.728 94.108 125.472 94.4659 125.347 94.8977L121.989 94.625C122.16 93.8295 122.495 93.142 122.995 92.5625C123.495 91.9773 124.14 91.5284 124.929 91.2159C125.725 90.8977 126.645 90.7386 127.691 90.7386C128.418 90.7386 129.114 90.8239 129.779 90.9943C130.449 91.1648 131.043 91.429 131.56 91.7869C132.083 92.1449 132.495 92.6051 132.796 93.1676C133.097 93.7244 133.248 94.392 133.248 95.1705V104H129.804V102.185H129.702C129.492 102.594 129.211 102.955 128.858 103.267C128.506 103.574 128.083 103.815 127.588 103.991C127.094 104.162 126.523 104.247 125.875 104.247ZM126.915 101.741C127.449 101.741 127.921 101.636 128.33 101.426C128.739 101.21 129.06 100.92 129.293 100.557C129.526 100.193 129.642 99.7812 129.642 99.321V97.9318C129.529 98.0057 129.373 98.0739 129.174 98.1364C128.981 98.1932 128.762 98.2472 128.517 98.2983C128.273 98.3437 128.029 98.3864 127.785 98.4261C127.54 98.4602 127.319 98.4915 127.12 98.5199C126.694 98.5824 126.321 98.6818 126.003 98.8182C125.685 98.9545 125.438 99.1392 125.262 99.3722C125.086 99.5994 124.998 99.8835 124.998 100.224C124.998 100.719 125.177 101.097 125.535 101.358C125.898 101.614 126.358 101.741 126.915 101.741ZM143.027 90.9091V93.6364H135.144V90.9091H143.027ZM136.934 87.7727H140.564V99.9773C140.564 100.312 140.615 100.574 140.718 100.761C140.82 100.943 140.962 101.071 141.144 101.145C141.331 101.219 141.547 101.256 141.792 101.256C141.962 101.256 142.133 101.241 142.303 101.213C142.473 101.179 142.604 101.153 142.695 101.136L143.266 103.838C143.084 103.895 142.829 103.96 142.499 104.034C142.169 104.114 141.769 104.162 141.297 104.179C140.422 104.213 139.655 104.097 138.996 103.83C138.343 103.562 137.834 103.148 137.471 102.585C137.107 102.023 136.928 101.312 136.934 100.455V87.7727ZM145.392 104V90.9091H149.023V104H145.392ZM147.216 89.2216C146.677 89.2216 146.213 89.0426 145.827 88.6847C145.446 88.321 145.256 87.8864 145.256 87.3807C145.256 86.8807 145.446 86.4517 145.827 86.0938C146.213 85.7301 146.677 85.5483 147.216 85.5483C147.756 85.5483 148.216 85.7301 148.597 86.0938C148.983 86.4517 149.177 86.8807 149.177 87.3807C149.177 87.8864 148.983 88.321 148.597 88.6847C148.216 89.0426 147.756 89.2216 147.216 89.2216ZM157.846 104.256C156.522 104.256 155.378 103.974 154.412 103.412C153.451 102.844 152.71 102.054 152.187 101.043C151.664 100.026 151.403 98.8466 151.403 97.5057C151.403 96.1534 151.664 94.9716 152.187 93.9602C152.71 92.9432 153.451 92.1534 154.412 91.5909C155.378 91.0227 156.522 90.7386 157.846 90.7386C159.17 90.7386 160.312 91.0227 161.272 91.5909C162.238 92.1534 162.983 92.9432 163.505 93.9602C164.028 94.9716 164.289 96.1534 164.289 97.5057C164.289 98.8466 164.028 100.026 163.505 101.043C162.983 102.054 162.238 102.844 161.272 103.412C160.312 103.974 159.17 104.256 157.846 104.256ZM157.863 101.443C158.466 101.443 158.968 101.273 159.372 100.932C159.775 100.585 160.079 100.114 160.284 99.517C160.494 98.9205 160.599 98.2415 160.599 97.4801C160.599 96.7188 160.494 96.0398 160.284 95.4432C160.079 94.8466 159.775 94.375 159.372 94.0284C158.968 93.6818 158.466 93.5085 157.863 93.5085C157.255 93.5085 156.744 93.6818 156.329 94.0284C155.92 94.375 155.611 94.8466 155.4 95.4432C155.196 96.0398 155.093 96.7188 155.093 97.4801C155.093 98.2415 155.196 98.9205 155.4 99.517C155.611 100.114 155.92 100.585 156.329 100.932C156.744 101.273 157.255 101.443 157.863 101.443ZM170.281 96.4318V104H166.65V90.9091H170.111V93.2188H170.264C170.554 92.4574 171.039 91.8551 171.721 91.4119C172.403 90.9631 173.23 90.7386 174.201 90.7386C175.111 90.7386 175.903 90.9375 176.579 91.3352C177.255 91.733 177.781 92.3011 178.156 93.0398C178.531 93.7727 178.718 94.6477 178.718 95.6648V104H175.088V96.3125C175.093 95.5114 174.889 94.8864 174.474 94.4375C174.059 93.983 173.488 93.7557 172.761 93.7557C172.272 93.7557 171.841 93.8608 171.466 94.071C171.096 94.2812 170.807 94.5881 170.596 94.9915C170.392 95.3892 170.287 95.8693 170.281 96.4318Z" fill="#333745"/>
<defs>
<linearGradient id="paint0_linear_2_52" x1="62.053" y1="5" x2="127.35" y2="61.3929" gradientUnits="userSpaceOnUse">
<stop stop-color="#E63462"/>
<stop offset="1" stop-color="#BD284F"/>
</linearGradient>
</defs>
</svg>
