<svg width="28" height="29" viewBox="0 0 28 29" fill="none" xmlns="http://www.w3.org/2000/svg">
<path d="M13.2385 28.15H8.41345C2.83928 28.15 0.350586 25.6613 0.350586 20.0871V15.2621C0.350586 9.68791 2.83928 7.19922 8.41345 7.19922H12.2227C12.7433 7.19922 13.175 7.63093 13.175 8.15153C13.175 8.67212 12.7433 9.10383 12.2227 9.10383H8.41345C3.86777 9.10383 2.2552 10.7164 2.2552 15.2621V20.0871C2.2552 24.6328 3.86777 26.2454 8.41345 26.2454H13.2385C17.7841 26.2454 19.3967 24.6328 19.3967 20.0871V16.2779C19.3967 15.7573 19.8284 15.3256 20.349 15.3256C20.8696 15.3256 21.3013 15.7573 21.3013 16.2779V20.0871C21.3013 25.6613 18.8126 28.15 13.2385 28.15Z" fill="#EEEEEE"/>
<path d="M20.3482 17.2303H16.285C12.717 17.2303 11.2695 15.7828 11.2695 12.2148V8.1516C11.2695 7.77068 11.4981 7.41515 11.8536 7.27548C12.2091 7.12311 12.6154 7.21199 12.8948 7.47864L21.0211 15.605C21.2878 15.8717 21.3767 16.2907 21.2243 16.6462C21.0846 17.0017 20.7291 17.2303 20.3482 17.2303ZM13.1741 10.4498V12.2148C13.1741 14.7416 13.7582 15.3257 16.285 15.3257H18.0499L13.1741 10.4498Z" fill="#EEEEEE"/>
<path d="M18.5708 2.7552H13.4919C12.9713 2.7552 12.5396 2.32349 12.5396 1.80289C12.5396 1.2823 12.9713 0.850586 13.4919 0.850586H18.5708C19.0914 0.850586 19.5231 1.2823 19.5231 1.80289C19.5231 2.32349 19.0914 2.7552 18.5708 2.7552Z" fill="#EEEEEE"/>
<path d="M7.65153 6.56443C7.13093 6.56443 6.69922 6.13271 6.69922 5.61212C6.69922 2.98375 8.83239 0.850586 11.4608 0.850586H14.7875C15.3081 0.850586 15.7398 1.2823 15.7398 1.80289C15.7398 2.32349 15.3081 2.7552 14.7875 2.7552H11.4608C9.88627 2.7552 8.60383 4.03764 8.60383 5.61212C8.60383 6.13271 8.17212 6.56443 7.65153 6.56443Z" fill="#EEEEEE"/>
<path d="M23.1291 21.8015C22.6085 21.8015 22.1768 21.3698 22.1768 20.8492C22.1768 20.3286 22.6085 19.8969 23.1291 19.8969C24.5766 19.8969 25.7447 18.7161 25.7447 17.2812V9.42155C25.7447 8.90095 26.1764 8.46924 26.697 8.46924C27.2176 8.46924 27.6493 8.90095 27.6493 9.42155V17.2812C27.6493 19.7699 25.6178 21.8015 23.1291 21.8015Z" fill="#EEEEEE"/>
<path d="M26.6977 10.3737H22.8885C19.511 10.3737 18.127 8.98971 18.127 5.6122V1.80297C18.127 1.42205 18.3555 1.06652 18.711 0.926849C19.0666 0.77448 19.4729 0.863362 19.7522 1.13001L27.3707 8.74846C27.6373 9.01511 27.7262 9.43412 27.5738 9.78965C27.4342 10.1452 27.0786 10.3737 26.6977 10.3737ZM20.0316 4.1012V5.6122C20.0316 7.93583 20.5649 8.46912 22.8885 8.46912H24.3995L20.0316 4.1012Z" fill="#EEEEEE"/>
</svg>
