<svg width="27" height="28" viewBox="0 0 27 28" fill="none" xmlns="http://www.w3.org/2000/svg">
<path d="M9.27928 2.08271L9.27925 2.08274L2.71415 7.1984C2.04905 7.7157 1.46006 8.49884 1.03737 9.35954C0.614688 10.2202 0.35625 11.1626 0.35625 12.0004V21.0259C0.35625 24.3907 3.08251 27.1294 6.44763 27.1294H20.5523C23.9174 27.1294 26.6437 24.3908 26.6437 21.0381V12.1709C26.6437 11.2779 26.3576 10.2864 25.8904 9.39193C25.4233 8.49745 24.7729 7.6958 24.0401 7.18467L16.5129 1.91074C14.4487 0.460893 11.2699 0.534484 9.27928 2.08271ZM10.4613 3.59888L10.4613 3.59887C11.1149 3.0892 12.0082 2.82058 12.9118 2.80097C13.8155 2.78136 14.7241 3.01086 15.4079 3.49075L15.4079 3.49077L22.9353 8.7648L22.9358 8.76513C23.4079 9.08786 23.8538 9.64977 24.1818 10.2786C24.5098 10.9075 24.7167 11.5968 24.7167 12.1709V21.0381C24.7167 23.3369 22.8511 25.2024 20.5523 25.2024H6.44763C4.14901 25.2024 2.28328 23.3249 2.28328 21.0259V12.0004C2.28328 11.4624 2.47203 10.8094 2.76991 10.2045C3.06773 9.5998 3.4716 9.04947 3.8963 8.71446C3.89633 8.71444 3.89636 8.71441 3.89639 8.71439L10.4613 3.59888Z" fill="#EEEEEE" stroke="#EEEEEE" stroke-width="0.1"/>
<path d="M13.4999 22.2073C13.0006 22.2073 12.5864 21.7932 12.5864 21.2938V17.6398C12.5864 17.1404 13.0006 16.7263 13.4999 16.7263C13.9993 16.7263 14.4135 17.1404 14.4135 17.6398V21.2938C14.4135 21.7932 13.9993 22.2073 13.4999 22.2073Z" fill="#EEEEEE"/>
</svg>
