<svg width="28" height="28" viewBox="0 0 28 28" fill="none" xmlns="http://www.w3.org/2000/svg">
<path d="M14 -0.241211C6.2846 -0.241211 0 6.04338 0 13.7588C0 21.4742 6.2846 27.7588 14 27.7588C21.7154 27.7588 28 21.4742 28 13.7588C28 6.04338 21.7154 -0.241211 14 -0.241211ZM14 2.55879C20.2022 2.55879 25.2 7.55662 25.2 13.7588C25.2 19.961 20.2022 24.9588 14 24.9588C7.79783 24.9588 2.8 19.961 2.8 13.7588C2.8 7.55662 7.79783 2.55879 14 2.55879ZM12.6 6.75879V9.55879H15.4V6.75879H12.6ZM12.6 12.3588V20.7588H15.4V12.3588H12.6Z" fill="#333745"/>
</svg>
