<svg width="25" height="28" viewBox="0 0 25 28" fill="none" xmlns="http://www.w3.org/2000/svg">
<path d="M11.6403 14.9147C7.77436 14.9147 4.62793 11.7682 4.62793 7.90227C4.62793 4.03631 7.77436 0.889877 11.6403 0.889877C15.5063 0.889877 18.6527 4.03631 18.6527 7.90227C18.6527 11.7682 15.5063 14.9147 11.6403 14.9147ZM11.6403 2.7192C8.78658 2.7192 6.45725 5.04853 6.45725 7.90227C6.45725 10.756 8.78658 13.0853 11.6403 13.0853C14.4941 13.0853 16.8234 10.756 16.8234 7.90227C16.8234 5.04853 14.4941 2.7192 11.6403 2.7192Z" fill="#EEEEEE"/>
<path d="M16.2983 27.11C15.8349 27.11 15.3958 26.9393 15.0788 26.6222C14.7007 26.2441 14.53 25.6953 14.6153 25.1221L14.847 23.4758C14.908 23.0489 15.1641 22.5489 15.469 22.2318L19.7862 17.9146C21.518 16.1829 23.0424 17.1707 23.7863 17.9146C24.4205 18.5488 24.7498 19.2317 24.7498 19.9147C24.7498 20.6098 24.4327 21.2562 23.7863 21.9025L19.469 26.2197C19.1641 26.5246 18.652 26.7807 18.2252 26.8417L16.5787 27.0733C16.4811 27.0977 16.3959 27.11 16.2983 27.11ZM21.7741 18.7805C21.5545 18.7805 21.3594 18.9269 21.0789 19.2073L16.7617 23.5245C16.7251 23.5611 16.6642 23.6831 16.6642 23.7319L16.4446 25.2563L17.9691 25.0368C18.0179 25.0246 18.1397 24.9636 18.1763 24.927L22.4936 20.6098C22.6887 20.4147 22.9204 20.1342 22.9204 19.9147C22.9204 19.7318 22.7741 19.4756 22.4936 19.2073C22.2009 18.9147 21.9814 18.7805 21.7741 18.7805Z" fill="#EEEEEE"/>
<path d="M22.5193 22.8049C22.434 22.8049 22.3486 22.7928 22.2754 22.7684C20.6656 22.3172 19.3851 21.0367 18.9339 19.4269C18.7997 18.939 19.0802 18.439 19.568 18.3049C20.0559 18.1707 20.5559 18.4512 20.69 18.939C20.9705 19.9391 21.7632 20.7318 22.7633 21.0123C23.2511 21.1464 23.5316 21.6586 23.3974 22.1343C23.2877 22.5367 22.9218 22.8049 22.5193 22.8049Z" fill="#EEEEEE"/>
<path d="M1.16466 27.1101C0.664646 27.1101 0.25 26.6955 0.25 26.1955C0.25 20.988 5.35992 16.744 11.6406 16.744C12.9699 16.744 14.287 16.9391 15.5188 17.305C16.0066 17.4513 16.2749 17.9635 16.1285 18.4392C15.9822 18.927 15.47 19.1953 14.9944 19.0489C13.9212 18.7318 12.7992 18.5611 11.6406 18.5611C6.37215 18.5611 2.07932 21.9758 2.07932 26.1833C2.07932 26.6955 1.66467 27.1101 1.16466 27.1101Z" fill="#EEEEEE"/>
</svg>
