<svg width="774" height="487" viewBox="0 0 774 487" fill="none" xmlns="http://www.w3.org/2000/svg">
<rect x="0.5" width="773" height="487" rx="25" fill="url(#paint0_linear_462_1190)"/>
<path d="M50.8145 435.055V436.355C50.8145 437.055 50.752 437.645 50.627 438.125C50.502 438.605 50.3223 438.992 50.0879 439.285C49.8535 439.578 49.5703 439.791 49.2383 439.924C48.9102 440.053 48.5391 440.117 48.125 440.117C47.7969 440.117 47.4941 440.076 47.2168 439.994C46.9395 439.912 46.6895 439.781 46.4668 439.602C46.248 439.418 46.0605 439.18 45.9043 438.887C45.748 438.594 45.6289 438.238 45.5469 437.82C45.4648 437.402 45.4238 436.914 45.4238 436.355V435.055C45.4238 434.355 45.4863 433.77 45.6113 433.297C45.7402 432.824 45.9219 432.445 46.1562 432.16C46.3906 431.871 46.6719 431.664 47 431.539C47.332 431.414 47.7031 431.352 48.1133 431.352C48.4453 431.352 48.75 431.393 49.0273 431.475C49.3086 431.553 49.5586 431.68 49.7773 431.855C49.9961 432.027 50.1816 432.258 50.334 432.547C50.4902 432.832 50.6094 433.182 50.6914 433.596C50.7734 434.01 50.8145 434.496 50.8145 435.055ZM49.7246 436.531V434.873C49.7246 434.49 49.7012 434.154 49.6543 433.865C49.6113 433.572 49.5469 433.322 49.4609 433.115C49.375 432.908 49.2656 432.74 49.1328 432.611C49.0039 432.482 48.8535 432.389 48.6816 432.33C48.5137 432.268 48.3242 432.236 48.1133 432.236C47.8555 432.236 47.627 432.285 47.4277 432.383C47.2285 432.477 47.0605 432.627 46.9238 432.834C46.791 433.041 46.6895 433.312 46.6191 433.648C46.5488 433.984 46.5137 434.393 46.5137 434.873V436.531C46.5137 436.914 46.5352 437.252 46.5781 437.545C46.625 437.838 46.6934 438.092 46.7832 438.307C46.873 438.518 46.9824 438.691 47.1113 438.828C47.2402 438.965 47.3887 439.066 47.5566 439.133C47.7285 439.195 47.918 439.227 48.125 439.227C48.3906 439.227 48.623 439.176 48.8223 439.074C49.0215 438.973 49.1875 438.814 49.3203 438.6C49.457 438.381 49.5586 438.102 49.625 437.762C49.6914 437.418 49.7246 437.008 49.7246 436.531Z" fill="white"/>
<path d="M44.2988 339.359V340.25H38.7148V339.471L41.5098 336.359C41.8535 335.977 42.1191 335.652 42.3066 335.387C42.498 335.117 42.6309 334.877 42.7051 334.666C42.7832 334.451 42.8223 334.232 42.8223 334.01C42.8223 333.729 42.7637 333.475 42.6465 333.248C42.5332 333.018 42.3652 332.834 42.1426 332.697C41.9199 332.561 41.6504 332.492 41.334 332.492C40.9551 332.492 40.6387 332.566 40.3848 332.715C40.1348 332.859 39.9473 333.062 39.8223 333.324C39.6973 333.586 39.6348 333.887 39.6348 334.227H38.5508C38.5508 333.746 38.6562 333.307 38.8672 332.908C39.0781 332.51 39.3906 332.193 39.8047 331.959C40.2188 331.721 40.7285 331.602 41.334 331.602C41.873 331.602 42.334 331.697 42.7168 331.889C43.0996 332.076 43.3926 332.342 43.5957 332.686C43.8027 333.025 43.9062 333.424 43.9062 333.881C43.9062 334.131 43.8633 334.385 43.7773 334.643C43.6953 334.896 43.5801 335.15 43.4316 335.404C43.2871 335.658 43.1172 335.908 42.9219 336.154C42.7305 336.4 42.5254 336.643 42.3066 336.881L40.0215 339.359H44.2988ZM46.8301 336.189L45.9629 335.967L46.3906 331.719H50.7676V332.721H47.3105L47.0527 335.041C47.209 334.951 47.4062 334.867 47.6445 334.789C47.8867 334.711 48.1641 334.672 48.4766 334.672C48.8711 334.672 49.2246 334.74 49.5371 334.877C49.8496 335.01 50.1152 335.201 50.334 335.451C50.5566 335.701 50.7266 336.002 50.8438 336.354C50.9609 336.705 51.0195 337.098 51.0195 337.531C51.0195 337.941 50.9629 338.318 50.8496 338.662C50.7402 339.006 50.5742 339.307 50.3516 339.564C50.1289 339.818 49.8477 340.016 49.5078 340.156C49.1719 340.297 48.7754 340.367 48.3184 340.367C47.9746 340.367 47.6484 340.32 47.3398 340.227C47.0352 340.129 46.7617 339.982 46.5195 339.787C46.2812 339.588 46.0859 339.342 45.9336 339.049C45.7852 338.752 45.6914 338.404 45.6523 338.006H46.6836C46.7305 338.326 46.8242 338.596 46.9648 338.814C47.1055 339.033 47.2891 339.199 47.5156 339.312C47.7461 339.422 48.0137 339.477 48.3184 339.477C48.5762 339.477 48.8047 339.432 49.0039 339.342C49.2031 339.252 49.3711 339.123 49.5078 338.955C49.6445 338.787 49.748 338.584 49.8184 338.346C49.8926 338.107 49.9297 337.84 49.9297 337.543C49.9297 337.273 49.8926 337.023 49.8184 336.793C49.7441 336.562 49.6328 336.361 49.4844 336.189C49.3398 336.018 49.1621 335.885 48.9512 335.791C48.7402 335.693 48.498 335.645 48.2246 335.645C47.8613 335.645 47.5859 335.693 47.3984 335.791C47.2148 335.889 47.0254 336.021 46.8301 336.189Z" fill="white"/>
<path d="M40.0801 236.439L39.2129 236.217L39.6406 231.969H44.0176V232.971H40.5605L40.3027 235.291C40.459 235.201 40.6562 235.117 40.8945 235.039C41.1367 234.961 41.4141 234.922 41.7266 234.922C42.1211 234.922 42.4746 234.99 42.7871 235.127C43.0996 235.26 43.3652 235.451 43.584 235.701C43.8066 235.951 43.9766 236.252 44.0938 236.604C44.2109 236.955 44.2695 237.348 44.2695 237.781C44.2695 238.191 44.2129 238.568 44.0996 238.912C43.9902 239.256 43.8242 239.557 43.6016 239.814C43.3789 240.068 43.0977 240.266 42.7578 240.406C42.4219 240.547 42.0254 240.617 41.5684 240.617C41.2246 240.617 40.8984 240.57 40.5898 240.477C40.2852 240.379 40.0117 240.232 39.7695 240.037C39.5312 239.838 39.3359 239.592 39.1836 239.299C39.0352 239.002 38.9414 238.654 38.9023 238.256H39.9336C39.9805 238.576 40.0742 238.846 40.2148 239.064C40.3555 239.283 40.5391 239.449 40.7656 239.562C40.9961 239.672 41.2637 239.727 41.5684 239.727C41.8262 239.727 42.0547 239.682 42.2539 239.592C42.4531 239.502 42.6211 239.373 42.7578 239.205C42.8945 239.037 42.998 238.834 43.0684 238.596C43.1426 238.357 43.1797 238.09 43.1797 237.793C43.1797 237.523 43.1426 237.273 43.0684 237.043C42.9941 236.812 42.8828 236.611 42.7344 236.439C42.5898 236.268 42.4121 236.135 42.2012 236.041C41.9902 235.943 41.748 235.895 41.4746 235.895C41.1113 235.895 40.8359 235.943 40.6484 236.041C40.4648 236.139 40.2754 236.271 40.0801 236.439ZM50.8145 235.555V236.855C50.8145 237.555 50.752 238.145 50.627 238.625C50.502 239.105 50.3223 239.492 50.0879 239.785C49.8535 240.078 49.5703 240.291 49.2383 240.424C48.9102 240.553 48.5391 240.617 48.125 240.617C47.7969 240.617 47.4941 240.576 47.2168 240.494C46.9395 240.412 46.6895 240.281 46.4668 240.102C46.248 239.918 46.0605 239.68 45.9043 239.387C45.748 239.094 45.6289 238.738 45.5469 238.32C45.4648 237.902 45.4238 237.414 45.4238 236.855V235.555C45.4238 234.855 45.4863 234.27 45.6113 233.797C45.7402 233.324 45.9219 232.945 46.1562 232.66C46.3906 232.371 46.6719 232.164 47 232.039C47.332 231.914 47.7031 231.852 48.1133 231.852C48.4453 231.852 48.75 231.893 49.0273 231.975C49.3086 232.053 49.5586 232.18 49.7773 232.355C49.9961 232.527 50.1816 232.758 50.334 233.047C50.4902 233.332 50.6094 233.682 50.6914 234.096C50.7734 234.51 50.8145 234.996 50.8145 235.555ZM49.7246 237.031V235.373C49.7246 234.99 49.7012 234.654 49.6543 234.365C49.6113 234.072 49.5469 233.822 49.4609 233.615C49.375 233.408 49.2656 233.24 49.1328 233.111C49.0039 232.982 48.8535 232.889 48.6816 232.83C48.5137 232.768 48.3242 232.736 48.1133 232.736C47.8555 232.736 47.627 232.785 47.4277 232.883C47.2285 232.977 47.0605 233.127 46.9238 233.334C46.791 233.541 46.6895 233.812 46.6191 234.148C46.5488 234.484 46.5137 234.893 46.5137 235.373V237.031C46.5137 237.414 46.5352 237.752 46.5781 238.045C46.625 238.338 46.6934 238.592 46.7832 238.807C46.873 239.018 46.9824 239.191 47.1113 239.328C47.2402 239.465 47.3887 239.566 47.5566 239.633C47.7285 239.695 47.918 239.727 48.125 239.727C48.3906 239.727 48.623 239.676 48.8223 239.574C49.0215 239.473 49.1875 239.314 49.3203 239.1C49.457 238.881 49.5586 238.602 49.625 238.262C49.6914 237.918 49.7246 237.508 49.7246 237.031Z" fill="white"/>
<path d="M44.2227 132.219V132.828L40.6895 140.75H39.5469L43.0742 133.109H38.457V132.219H44.2227ZM46.8301 136.689L45.9629 136.467L46.3906 132.219H50.7676V133.221H47.3105L47.0527 135.541C47.209 135.451 47.4062 135.367 47.6445 135.289C47.8867 135.211 48.1641 135.172 48.4766 135.172C48.8711 135.172 49.2246 135.24 49.5371 135.377C49.8496 135.51 50.1152 135.701 50.334 135.951C50.5566 136.201 50.7266 136.502 50.8438 136.854C50.9609 137.205 51.0195 137.598 51.0195 138.031C51.0195 138.441 50.9629 138.818 50.8496 139.162C50.7402 139.506 50.5742 139.807 50.3516 140.064C50.1289 140.318 49.8477 140.516 49.5078 140.656C49.1719 140.797 48.7754 140.867 48.3184 140.867C47.9746 140.867 47.6484 140.82 47.3398 140.727C47.0352 140.629 46.7617 140.482 46.5195 140.287C46.2812 140.088 46.0859 139.842 45.9336 139.549C45.7852 139.252 45.6914 138.904 45.6523 138.506H46.6836C46.7305 138.826 46.8242 139.096 46.9648 139.314C47.1055 139.533 47.2891 139.699 47.5156 139.812C47.7461 139.922 48.0137 139.977 48.3184 139.977C48.5762 139.977 48.8047 139.932 49.0039 139.842C49.2031 139.752 49.3711 139.623 49.5078 139.455C49.6445 139.287 49.748 139.084 49.8184 138.846C49.8926 138.607 49.9297 138.34 49.9297 138.043C49.9297 137.773 49.8926 137.523 49.8184 137.293C49.7441 137.062 49.6328 136.861 49.4844 136.689C49.3398 136.518 49.1621 136.385 48.9512 136.291C48.7402 136.193 48.498 136.145 48.2246 136.145C47.8613 136.145 47.5859 136.193 47.3984 136.291C47.2148 136.389 47.0254 136.521 46.8301 136.689Z" fill="white"/>
<path d="M35.5215 32.4219V41H34.4375V33.7754L32.252 34.5723V33.5938L35.3516 32.4219H35.5215ZM44.0645 36.0547V37.3555C44.0645 38.0547 44.002 38.6445 43.877 39.125C43.752 39.6055 43.5723 39.9922 43.3379 40.2852C43.1035 40.5781 42.8203 40.791 42.4883 40.9238C42.1602 41.0527 41.7891 41.1172 41.375 41.1172C41.0469 41.1172 40.7441 41.0762 40.4668 40.9941C40.1895 40.9121 39.9395 40.7812 39.7168 40.6016C39.498 40.418 39.3105 40.1797 39.1543 39.8867C38.998 39.5938 38.8789 39.2383 38.7969 38.8203C38.7148 38.4023 38.6738 37.9141 38.6738 37.3555V36.0547C38.6738 35.3555 38.7363 34.7695 38.8613 34.2969C38.9902 33.8242 39.1719 33.4453 39.4062 33.1602C39.6406 32.8711 39.9219 32.6641 40.25 32.5391C40.582 32.4141 40.9531 32.3516 41.3633 32.3516C41.6953 32.3516 42 32.3926 42.2773 32.4746C42.5586 32.5527 42.8086 32.6797 43.0273 32.8555C43.2461 33.0273 43.4316 33.2578 43.584 33.5469C43.7402 33.832 43.8594 34.1816 43.9414 34.5957C44.0234 35.0098 44.0645 35.4961 44.0645 36.0547ZM42.9746 37.5312V35.873C42.9746 35.4902 42.9512 35.1543 42.9043 34.8652C42.8613 34.5723 42.7969 34.3223 42.7109 34.1152C42.625 33.9082 42.5156 33.7402 42.3828 33.6113C42.2539 33.4824 42.1035 33.3887 41.9316 33.3301C41.7637 33.2676 41.5742 33.2363 41.3633 33.2363C41.1055 33.2363 40.877 33.2852 40.6777 33.3828C40.4785 33.4766 40.3105 33.627 40.1738 33.834C40.041 34.041 39.9395 34.3125 39.8691 34.6484C39.7988 34.9844 39.7637 35.3926 39.7637 35.873V37.5312C39.7637 37.9141 39.7852 38.252 39.8281 38.5449C39.875 38.8379 39.9434 39.0918 40.0332 39.3066C40.123 39.5176 40.2324 39.6914 40.3613 39.8281C40.4902 39.9648 40.6387 40.0664 40.8066 40.1328C40.9785 40.1953 41.168 40.2266 41.375 40.2266C41.6406 40.2266 41.873 40.1758 42.0723 40.0742C42.2715 39.9727 42.4375 39.8145 42.5703 39.5996C42.707 39.3809 42.8086 39.1016 42.875 38.7617C42.9414 38.418 42.9746 38.0078 42.9746 37.5312ZM50.8145 36.0547V37.3555C50.8145 38.0547 50.752 38.6445 50.627 39.125C50.502 39.6055 50.3223 39.9922 50.0879 40.2852C49.8535 40.5781 49.5703 40.791 49.2383 40.9238C48.9102 41.0527 48.5391 41.1172 48.125 41.1172C47.7969 41.1172 47.4941 41.0762 47.2168 40.9941C46.9395 40.9121 46.6895 40.7812 46.4668 40.6016C46.248 40.418 46.0605 40.1797 45.9043 39.8867C45.748 39.5938 45.6289 39.2383 45.5469 38.8203C45.4648 38.4023 45.4238 37.9141 45.4238 37.3555V36.0547C45.4238 35.3555 45.4863 34.7695 45.6113 34.2969C45.7402 33.8242 45.9219 33.4453 46.1562 33.1602C46.3906 32.8711 46.6719 32.6641 47 32.5391C47.332 32.4141 47.7031 32.3516 48.1133 32.3516C48.4453 32.3516 48.75 32.3926 49.0273 32.4746C49.3086 32.5527 49.5586 32.6797 49.7773 32.8555C49.9961 33.0273 50.1816 33.2578 50.334 33.5469C50.4902 33.832 50.6094 34.1816 50.6914 34.5957C50.7734 35.0098 50.8145 35.4961 50.8145 36.0547ZM49.7246 37.5312V35.873C49.7246 35.4902 49.7012 35.1543 49.6543 34.8652C49.6113 34.5723 49.5469 34.3223 49.4609 34.1152C49.375 33.9082 49.2656 33.7402 49.1328 33.6113C49.0039 33.4824 48.8535 33.3887 48.6816 33.3301C48.5137 33.2676 48.3242 33.2363 48.1133 33.2363C47.8555 33.2363 47.627 33.2852 47.4277 33.3828C47.2285 33.4766 47.0605 33.627 46.9238 33.834C46.791 34.041 46.6895 34.3125 46.6191 34.6484C46.5488 34.9844 46.5137 35.3926 46.5137 35.873V37.5312C46.5137 37.9141 46.5352 38.252 46.5781 38.5449C46.625 38.8379 46.6934 39.0918 46.7832 39.3066C46.873 39.5176 46.9824 39.6914 47.1113 39.8281C47.2402 39.9648 47.3887 40.0664 47.5566 40.1328C47.7285 40.1953 47.918 40.2266 48.125 40.2266C48.3906 40.2266 48.623 40.1758 48.8223 40.0742C49.0215 39.9727 49.1875 39.8145 49.3203 39.5996C49.457 39.3809 49.5586 39.1016 49.625 38.7617C49.6914 38.418 49.7246 38.0078 49.7246 37.5312Z" fill="white"/>
<circle cx="61" cy="432.5" r="3.5" fill="white" stroke="#E63564" stroke-width="2"/>
<circle cx="122.818" cy="424.5" r="3.5" fill="white" stroke="#E63564" stroke-width="2"/>
<circle cx="184.636" cy="420.5" r="3.5" fill="white" stroke="#E63564" stroke-width="2"/>
<circle cx="246.455" cy="412.5" r="3.5" fill="white" stroke="#E63564" stroke-width="2"/>
<circle cx="308.273" cy="392.5" r="3.5" fill="white" stroke="#E63564" stroke-width="2"/>
<circle cx="370.091" cy="372.5" r="3.5" fill="white" stroke="#E63564" stroke-width="2"/>
<circle cx="431.909" cy="328.5" r="3.5" fill="white" stroke="#E63564" stroke-width="2"/>
<circle cx="493.727" cy="300.5" r="3.5" fill="white" stroke="#E63564" stroke-width="2"/>
<circle cx="555.545" cy="248.5" r="3.5" fill="white" stroke="#E63564" stroke-width="2"/>
<circle cx="617.364" cy="188.5" r="3.5" fill="white" stroke="#E63564" stroke-width="2"/>
<circle cx="679.182" cy="100.5" r="3.5" fill="white" stroke="#E63564" stroke-width="2"/>
<circle cx="741" cy="32.5" r="3.5" fill="white" stroke="#E63564" stroke-width="2"/>
<path d="M34.8965 445.422V454H33.8125V446.775L31.627 447.572V446.594L34.7266 445.422H34.8965Z" fill="white"/>
<path d="M82.2572 453.109V454H76.6732V453.221L79.4681 450.109C79.8119 449.727 80.0775 449.402 80.265 449.137C80.4564 448.867 80.5892 448.627 80.6635 448.416C80.7416 448.201 80.7806 447.982 80.7806 447.76C80.7806 447.479 80.722 447.225 80.6049 446.998C80.4916 446.768 80.3236 446.584 80.101 446.447C79.8783 446.311 79.6088 446.242 79.2924 446.242C78.9135 446.242 78.597 446.316 78.3431 446.465C78.0931 446.609 77.9056 446.812 77.7806 447.074C77.6556 447.336 77.5931 447.637 77.5931 447.977H76.5092C76.5092 447.496 76.6146 447.057 76.8256 446.658C77.0365 446.26 77.349 445.943 77.7631 445.709C78.1771 445.471 78.6869 445.352 79.2924 445.352C79.8314 445.352 80.2924 445.447 80.6752 445.639C81.058 445.826 81.351 446.092 81.5541 446.436C81.7611 446.775 81.8646 447.174 81.8646 447.631C81.8646 447.881 81.8217 448.135 81.7357 448.393C81.6537 448.646 81.5385 448.9 81.39 449.154C81.2455 449.408 81.0756 449.658 80.8802 449.904C80.6888 450.15 80.4838 450.393 80.265 450.631L77.9799 453.109H82.2572Z" fill="white"/>
<path d="M123.583 449.201H124.356C124.735 449.201 125.047 449.139 125.294 449.014C125.544 448.885 125.729 448.711 125.85 448.492C125.975 448.27 126.038 448.02 126.038 447.742C126.038 447.414 125.983 447.139 125.874 446.916C125.764 446.693 125.6 446.525 125.381 446.412C125.163 446.299 124.885 446.242 124.549 446.242C124.245 446.242 123.975 446.303 123.741 446.424C123.51 446.541 123.329 446.709 123.196 446.928C123.067 447.146 123.003 447.404 123.003 447.701H121.919C121.919 447.268 122.028 446.873 122.247 446.518C122.465 446.162 122.772 445.879 123.167 445.668C123.565 445.457 124.026 445.352 124.549 445.352C125.065 445.352 125.516 445.443 125.903 445.627C126.29 445.807 126.59 446.076 126.805 446.436C127.02 446.791 127.128 447.234 127.128 447.766C127.128 447.98 127.077 448.211 126.975 448.457C126.878 448.699 126.723 448.926 126.512 449.137C126.305 449.348 126.036 449.521 125.704 449.658C125.372 449.791 124.973 449.857 124.508 449.857H123.583V449.201ZM123.583 450.092V449.441H124.508C125.051 449.441 125.501 449.506 125.856 449.635C126.212 449.764 126.491 449.936 126.694 450.15C126.901 450.365 127.046 450.602 127.128 450.859C127.214 451.113 127.256 451.367 127.256 451.621C127.256 452.02 127.188 452.373 127.051 452.682C126.919 452.99 126.729 453.252 126.483 453.467C126.241 453.682 125.956 453.844 125.628 453.953C125.299 454.062 124.942 454.117 124.555 454.117C124.184 454.117 123.835 454.064 123.506 453.959C123.182 453.854 122.895 453.701 122.645 453.502C122.395 453.299 122.2 453.051 122.059 452.758C121.919 452.461 121.848 452.123 121.848 451.744H122.932C122.932 452.041 122.997 452.301 123.126 452.523C123.258 452.746 123.446 452.92 123.688 453.045C123.934 453.166 124.223 453.227 124.555 453.227C124.887 453.227 125.172 453.17 125.411 453.057C125.653 452.939 125.839 452.764 125.967 452.529C126.1 452.295 126.167 452 126.167 451.645C126.167 451.289 126.092 450.998 125.944 450.771C125.796 450.541 125.585 450.371 125.311 450.262C125.042 450.148 124.723 450.092 124.356 450.092H123.583Z" fill="white"/>
<path d="M173.1 451.129V452.02H166.936V451.381L170.756 445.469H171.641L170.691 447.18L168.166 451.129H173.1ZM171.91 445.469V454H170.826V445.469H171.91Z" fill="white"/>
<path d="M214.038 449.939L213.171 449.717L213.599 445.469H217.976V446.471H214.519L214.261 448.791C214.417 448.701 214.615 448.617 214.853 448.539C215.095 448.461 215.372 448.422 215.685 448.422C216.079 448.422 216.433 448.49 216.745 448.627C217.058 448.76 217.324 448.951 217.542 449.201C217.765 449.451 217.935 449.752 218.052 450.104C218.169 450.455 218.228 450.848 218.228 451.281C218.228 451.691 218.171 452.068 218.058 452.412C217.949 452.756 217.783 453.057 217.56 453.314C217.337 453.568 217.056 453.766 216.716 453.906C216.38 454.047 215.984 454.117 215.527 454.117C215.183 454.117 214.857 454.07 214.548 453.977C214.244 453.879 213.97 453.732 213.728 453.537C213.49 453.338 213.294 453.092 213.142 452.799C212.994 452.502 212.9 452.154 212.861 451.756H213.892C213.939 452.076 214.033 452.346 214.173 452.564C214.314 452.783 214.497 452.949 214.724 453.062C214.954 453.172 215.222 453.227 215.527 453.227C215.785 453.227 216.013 453.182 216.212 453.092C216.411 453.002 216.579 452.873 216.716 452.705C216.853 452.537 216.956 452.334 217.027 452.096C217.101 451.857 217.138 451.59 217.138 451.293C217.138 451.023 217.101 450.773 217.027 450.543C216.953 450.312 216.841 450.111 216.693 449.939C216.548 449.768 216.37 449.635 216.16 449.541C215.949 449.443 215.706 449.395 215.433 449.395C215.07 449.395 214.794 449.443 214.607 449.541C214.423 449.639 214.234 449.771 214.038 449.939Z" fill="white"/>
<path d="M262.161 445.457H262.255V446.377H262.161C261.587 446.377 261.106 446.471 260.719 446.658C260.333 446.842 260.026 447.09 259.799 447.402C259.573 447.711 259.409 448.059 259.307 448.445C259.21 448.832 259.161 449.225 259.161 449.623V450.877C259.161 451.256 259.206 451.592 259.296 451.885C259.385 452.174 259.508 452.418 259.665 452.617C259.821 452.816 259.997 452.967 260.192 453.068C260.391 453.17 260.598 453.221 260.813 453.221C261.063 453.221 261.286 453.174 261.481 453.08C261.676 452.982 261.84 452.848 261.973 452.676C262.11 452.5 262.214 452.293 262.284 452.055C262.354 451.816 262.389 451.555 262.389 451.27C262.389 451.016 262.358 450.771 262.296 450.537C262.233 450.299 262.137 450.088 262.008 449.904C261.88 449.717 261.717 449.57 261.522 449.465C261.331 449.355 261.102 449.301 260.837 449.301C260.536 449.301 260.255 449.375 259.993 449.523C259.735 449.668 259.522 449.859 259.354 450.098C259.19 450.332 259.096 450.588 259.073 450.865L258.499 450.859C258.553 450.422 258.655 450.049 258.803 449.74C258.956 449.428 259.143 449.174 259.366 448.979C259.592 448.779 259.844 448.635 260.122 448.545C260.403 448.451 260.7 448.404 261.012 448.404C261.438 448.404 261.805 448.484 262.114 448.645C262.422 448.805 262.676 449.02 262.876 449.289C263.075 449.555 263.221 449.855 263.315 450.191C263.413 450.523 263.462 450.865 263.462 451.217C263.462 451.619 263.405 451.996 263.292 452.348C263.178 452.699 263.008 453.008 262.782 453.273C262.559 453.539 262.284 453.746 261.956 453.895C261.628 454.043 261.247 454.117 260.813 454.117C260.352 454.117 259.95 454.023 259.606 453.836C259.262 453.645 258.977 453.391 258.751 453.074C258.524 452.758 258.354 452.406 258.241 452.02C258.128 451.633 258.071 451.24 258.071 450.842V450.332C258.071 449.73 258.131 449.141 258.253 448.562C258.374 447.984 258.583 447.461 258.88 446.992C259.18 446.523 259.596 446.15 260.128 445.873C260.659 445.596 261.337 445.457 262.161 445.457Z" fill="white"/>
<path d="M308.348 445.469V446.078L304.814 454H303.672L307.199 446.359H302.582V445.469H308.348Z" fill="white"/>
<path d="M354.046 451.691C354.046 452.211 353.925 452.652 353.683 453.016C353.445 453.375 353.12 453.648 352.71 453.836C352.304 454.023 351.845 454.117 351.333 454.117C350.822 454.117 350.361 454.023 349.951 453.836C349.54 453.648 349.216 453.375 348.978 453.016C348.74 452.652 348.62 452.211 348.62 451.691C348.62 451.352 348.685 451.041 348.814 450.76C348.947 450.475 349.132 450.227 349.37 450.016C349.613 449.805 349.898 449.643 350.226 449.529C350.558 449.412 350.923 449.354 351.322 449.354C351.845 449.354 352.312 449.455 352.722 449.658C353.132 449.857 353.454 450.133 353.689 450.484C353.927 450.836 354.046 451.238 354.046 451.691ZM352.956 451.668C352.956 451.352 352.888 451.072 352.751 450.83C352.615 450.584 352.423 450.393 352.177 450.256C351.931 450.119 351.646 450.051 351.322 450.051C350.99 450.051 350.703 450.119 350.46 450.256C350.222 450.393 350.036 450.584 349.904 450.83C349.771 451.072 349.704 451.352 349.704 451.668C349.704 451.996 349.769 452.277 349.898 452.512C350.031 452.742 350.218 452.92 350.46 453.045C350.706 453.166 350.997 453.227 351.333 453.227C351.669 453.227 351.958 453.166 352.201 453.045C352.443 452.92 352.628 452.742 352.757 452.512C352.89 452.277 352.956 451.996 352.956 451.668ZM353.847 447.689C353.847 448.104 353.738 448.477 353.519 448.809C353.3 449.141 353.001 449.402 352.622 449.594C352.244 449.785 351.814 449.881 351.333 449.881C350.845 449.881 350.41 449.785 350.027 449.594C349.648 449.402 349.351 449.141 349.136 448.809C348.921 448.477 348.814 448.104 348.814 447.689C348.814 447.193 348.921 446.771 349.136 446.424C349.355 446.076 349.654 445.811 350.033 445.627C350.411 445.443 350.843 445.352 351.328 445.352C351.816 445.352 352.249 445.443 352.628 445.627C353.007 445.811 353.304 446.076 353.519 446.424C353.738 446.771 353.847 447.193 353.847 447.689ZM352.763 447.707C352.763 447.422 352.703 447.17 352.581 446.951C352.46 446.732 352.292 446.561 352.078 446.436C351.863 446.307 351.613 446.242 351.328 446.242C351.042 446.242 350.792 446.303 350.578 446.424C350.367 446.541 350.201 446.709 350.079 446.928C349.962 447.146 349.904 447.406 349.904 447.707C349.904 448 349.962 448.256 350.079 448.475C350.201 448.693 350.369 448.863 350.583 448.984C350.798 449.105 351.048 449.166 351.333 449.166C351.619 449.166 351.867 449.105 352.078 448.984C352.292 448.863 352.46 448.693 352.581 448.475C352.703 448.256 352.763 448 352.763 447.707Z" fill="white"/>
<path d="M395.079 453.092H395.19C395.815 453.092 396.323 453.004 396.714 452.828C397.104 452.652 397.405 452.416 397.616 452.119C397.827 451.822 397.971 451.488 398.049 451.117C398.128 450.742 398.167 450.357 398.167 449.963V448.656C398.167 448.27 398.122 447.926 398.032 447.625C397.946 447.324 397.825 447.072 397.669 446.869C397.516 446.666 397.342 446.512 397.147 446.406C396.952 446.301 396.745 446.248 396.526 446.248C396.276 446.248 396.051 446.299 395.852 446.4C395.657 446.498 395.491 446.637 395.354 446.816C395.221 446.996 395.12 447.207 395.049 447.449C394.979 447.691 394.944 447.955 394.944 448.24C394.944 448.494 394.975 448.74 395.038 448.979C395.1 449.217 395.196 449.432 395.325 449.623C395.454 449.814 395.614 449.967 395.805 450.08C396.001 450.189 396.229 450.244 396.491 450.244C396.733 450.244 396.96 450.197 397.171 450.104C397.385 450.006 397.575 449.875 397.739 449.711C397.907 449.543 398.04 449.354 398.137 449.143C398.239 448.932 398.297 448.711 398.313 448.48H398.829C398.829 448.805 398.764 449.125 398.635 449.441C398.51 449.754 398.335 450.039 398.108 450.297C397.881 450.555 397.616 450.762 397.311 450.918C397.006 451.07 396.674 451.146 396.315 451.146C395.893 451.146 395.528 451.064 395.219 450.9C394.911 450.736 394.657 450.518 394.458 450.244C394.262 449.971 394.116 449.666 394.018 449.33C393.924 448.99 393.878 448.646 393.878 448.299C393.878 447.893 393.934 447.512 394.047 447.156C394.161 446.801 394.329 446.488 394.551 446.219C394.774 445.945 395.049 445.732 395.378 445.58C395.71 445.428 396.092 445.352 396.526 445.352C397.014 445.352 397.43 445.449 397.774 445.645C398.118 445.84 398.397 446.102 398.612 446.43C398.831 446.758 398.991 447.127 399.092 447.537C399.194 447.947 399.245 448.369 399.245 448.803V449.195C399.245 449.637 399.215 450.086 399.157 450.543C399.102 450.996 398.995 451.43 398.835 451.844C398.678 452.258 398.45 452.629 398.149 452.957C397.848 453.281 397.456 453.539 396.971 453.73C396.491 453.918 395.897 454.012 395.19 454.012H395.079V453.092Z" fill="white"/>
<path d="M439.021 445.422V454H437.938V446.775L435.752 447.572V446.594L438.852 445.422H439.021ZM447.564 449.055V450.355C447.564 451.055 447.502 451.645 447.377 452.125C447.252 452.605 447.072 452.992 446.838 453.285C446.604 453.578 446.32 453.791 445.988 453.924C445.66 454.053 445.289 454.117 444.875 454.117C444.547 454.117 444.244 454.076 443.967 453.994C443.689 453.912 443.439 453.781 443.217 453.602C442.998 453.418 442.811 453.18 442.654 452.887C442.498 452.594 442.379 452.238 442.297 451.82C442.215 451.402 442.174 450.914 442.174 450.355V449.055C442.174 448.355 442.236 447.77 442.361 447.297C442.49 446.824 442.672 446.445 442.906 446.16C443.141 445.871 443.422 445.664 443.75 445.539C444.082 445.414 444.453 445.352 444.863 445.352C445.195 445.352 445.5 445.393 445.777 445.475C446.059 445.553 446.309 445.68 446.527 445.855C446.746 446.027 446.932 446.258 447.084 446.547C447.24 446.832 447.359 447.182 447.441 447.596C447.523 448.01 447.564 448.496 447.564 449.055ZM446.475 450.531V448.873C446.475 448.49 446.451 448.154 446.404 447.865C446.361 447.572 446.297 447.322 446.211 447.115C446.125 446.908 446.016 446.74 445.883 446.611C445.754 446.482 445.604 446.389 445.432 446.33C445.264 446.268 445.074 446.236 444.863 446.236C444.605 446.236 444.377 446.285 444.178 446.383C443.979 446.477 443.811 446.627 443.674 446.834C443.541 447.041 443.439 447.312 443.369 447.648C443.299 447.984 443.264 448.393 443.264 448.873V450.531C443.264 450.914 443.285 451.252 443.328 451.545C443.375 451.838 443.443 452.092 443.533 452.307C443.623 452.518 443.732 452.691 443.861 452.828C443.99 452.965 444.139 453.066 444.307 453.133C444.479 453.195 444.668 453.227 444.875 453.227C445.141 453.227 445.373 453.176 445.572 453.074C445.771 452.973 445.938 452.814 446.07 452.6C446.207 452.381 446.309 452.102 446.375 451.762C446.441 451.418 446.475 451.008 446.475 450.531Z" fill="white"/>
<path d="M484.355 445.422V454H483.271V446.775L481.085 447.572V446.594L484.185 445.422H484.355ZM491.105 445.422V454H490.021V446.775L487.835 447.572V446.594L490.935 445.422H491.105Z" fill="white"/>
<path d="M529.188 445.422V454H528.104V446.775L525.919 447.572V446.594L529.018 445.422H529.188ZM537.965 453.109V454H532.381V453.221L535.176 450.109C535.52 449.727 535.786 449.402 535.973 449.137C536.165 448.867 536.297 448.627 536.372 448.416C536.45 448.201 536.489 447.982 536.489 447.76C536.489 447.479 536.43 447.225 536.313 446.998C536.2 446.768 536.032 446.584 535.809 446.447C535.587 446.311 535.317 446.242 535.001 446.242C534.622 446.242 534.305 446.316 534.051 446.465C533.801 446.609 533.614 446.812 533.489 447.074C533.364 447.336 533.301 447.637 533.301 447.977H532.217C532.217 447.496 532.323 447.057 532.534 446.658C532.745 446.26 533.057 445.943 533.471 445.709C533.885 445.471 534.395 445.352 535.001 445.352C535.54 445.352 536.001 445.447 536.383 445.639C536.766 445.826 537.059 446.092 537.262 446.436C537.469 446.775 537.573 447.174 537.573 447.631C537.573 447.881 537.53 448.135 537.444 448.393C537.362 448.646 537.247 448.9 537.098 449.154C536.954 449.408 536.784 449.658 536.589 449.904C536.397 450.15 536.192 450.393 535.973 450.631L533.688 453.109H537.965Z" fill="white"/>
<path d="M575.021 445.422V454H573.938V446.775L571.752 447.572V446.594L574.852 445.422H575.021ZM579.791 449.201H580.564C580.943 449.201 581.256 449.139 581.502 449.014C581.752 448.885 581.938 448.711 582.059 448.492C582.184 448.27 582.246 448.02 582.246 447.742C582.246 447.414 582.191 447.139 582.082 446.916C581.973 446.693 581.809 446.525 581.59 446.412C581.371 446.299 581.094 446.242 580.758 446.242C580.453 446.242 580.184 446.303 579.949 446.424C579.719 446.541 579.537 446.709 579.404 446.928C579.275 447.146 579.211 447.404 579.211 447.701H578.127C578.127 447.268 578.236 446.873 578.455 446.518C578.674 446.162 578.98 445.879 579.375 445.668C579.773 445.457 580.234 445.352 580.758 445.352C581.273 445.352 581.725 445.443 582.111 445.627C582.498 445.807 582.799 446.076 583.014 446.436C583.229 446.791 583.336 447.234 583.336 447.766C583.336 447.98 583.285 448.211 583.184 448.457C583.086 448.699 582.932 448.926 582.721 449.137C582.514 449.348 582.244 449.521 581.912 449.658C581.58 449.791 581.182 449.857 580.717 449.857H579.791V449.201ZM579.791 450.092V449.441H580.717C581.26 449.441 581.709 449.506 582.064 449.635C582.42 449.764 582.699 449.936 582.902 450.15C583.109 450.365 583.254 450.602 583.336 450.859C583.422 451.113 583.465 451.367 583.465 451.621C583.465 452.02 583.396 452.373 583.26 452.682C583.127 452.99 582.938 453.252 582.691 453.467C582.449 453.682 582.164 453.844 581.836 453.953C581.508 454.062 581.15 454.117 580.764 454.117C580.393 454.117 580.043 454.064 579.715 453.959C579.391 453.854 579.104 453.701 578.854 453.502C578.604 453.299 578.408 453.051 578.268 452.758C578.127 452.461 578.057 452.123 578.057 451.744H579.141C579.141 452.041 579.205 452.301 579.334 452.523C579.467 452.746 579.654 452.92 579.896 453.045C580.143 453.166 580.432 453.227 580.764 453.227C581.096 453.227 581.381 453.17 581.619 453.057C581.861 452.939 582.047 452.764 582.176 452.529C582.309 452.295 582.375 452 582.375 451.645C582.375 451.289 582.301 450.998 582.152 450.771C582.004 450.541 581.793 450.371 581.52 450.262C581.25 450.148 580.932 450.092 580.564 450.092H579.791Z" fill="white"/>
<path d="M620.355 445.422V454H619.271V446.775L617.085 447.572V446.594L620.185 445.422H620.355ZM629.308 451.129V452.02H623.144V451.381L626.964 445.469H627.849L626.9 447.18L624.374 451.129H629.308ZM628.119 445.469V454H627.035V445.469H628.119Z" fill="white"/>
<path d="M665.188 445.422V454H664.104V446.775L661.919 447.572V446.594L665.018 445.422H665.188ZM669.747 449.939L668.88 449.717L669.307 445.469H673.684V446.471H670.227L669.969 448.791C670.126 448.701 670.323 448.617 670.561 448.539C670.803 448.461 671.081 448.422 671.393 448.422C671.788 448.422 672.141 448.49 672.454 448.627C672.766 448.76 673.032 448.951 673.251 449.201C673.473 449.451 673.643 449.752 673.76 450.104C673.878 450.455 673.936 450.848 673.936 451.281C673.936 451.691 673.88 452.068 673.766 452.412C673.657 452.756 673.491 453.057 673.268 453.314C673.046 453.568 672.764 453.766 672.424 453.906C672.089 454.047 671.692 454.117 671.235 454.117C670.891 454.117 670.565 454.07 670.257 453.977C669.952 453.879 669.678 453.732 669.436 453.537C669.198 453.338 669.003 453.092 668.85 452.799C668.702 452.502 668.608 452.154 668.569 451.756H669.6C669.647 452.076 669.741 452.346 669.882 452.564C670.022 452.783 670.206 452.949 670.432 453.062C670.663 453.172 670.93 453.227 671.235 453.227C671.493 453.227 671.721 453.182 671.921 453.092C672.12 453.002 672.288 452.873 672.424 452.705C672.561 452.537 672.665 452.334 672.735 452.096C672.809 451.857 672.846 451.59 672.846 451.293C672.846 451.023 672.809 450.773 672.735 450.543C672.661 450.312 672.549 450.111 672.401 449.939C672.257 449.768 672.079 449.635 671.868 449.541C671.657 449.443 671.415 449.395 671.141 449.395C670.778 449.395 670.503 449.443 670.315 449.541C670.132 449.639 669.942 449.771 669.747 449.939Z" fill="white"/>
<path d="M711.021 445.422V454H709.938V446.775L707.752 447.572V446.594L710.852 445.422H711.021ZM718.369 445.457H718.463V446.377H718.369C717.795 446.377 717.314 446.471 716.928 446.658C716.541 446.842 716.234 447.09 716.008 447.402C715.781 447.711 715.617 448.059 715.516 448.445C715.418 448.832 715.369 449.225 715.369 449.623V450.877C715.369 451.256 715.414 451.592 715.504 451.885C715.594 452.174 715.717 452.418 715.873 452.617C716.029 452.816 716.205 452.967 716.4 453.068C716.6 453.17 716.807 453.221 717.021 453.221C717.271 453.221 717.494 453.174 717.689 453.08C717.885 452.982 718.049 452.848 718.182 452.676C718.318 452.5 718.422 452.293 718.492 452.055C718.562 451.816 718.598 451.555 718.598 451.27C718.598 451.016 718.566 450.771 718.504 450.537C718.441 450.299 718.346 450.088 718.217 449.904C718.088 449.717 717.926 449.57 717.73 449.465C717.539 449.355 717.311 449.301 717.045 449.301C716.744 449.301 716.463 449.375 716.201 449.523C715.943 449.668 715.73 449.859 715.562 450.098C715.398 450.332 715.305 450.588 715.281 450.865L714.707 450.859C714.762 450.422 714.863 450.049 715.012 449.74C715.164 449.428 715.352 449.174 715.574 448.979C715.801 448.779 716.053 448.635 716.33 448.545C716.611 448.451 716.908 448.404 717.221 448.404C717.646 448.404 718.014 448.484 718.322 448.645C718.631 448.805 718.885 449.02 719.084 449.289C719.283 449.555 719.43 449.855 719.523 450.191C719.621 450.523 719.67 450.865 719.67 451.217C719.67 451.619 719.613 451.996 719.5 452.348C719.387 452.699 719.217 453.008 718.99 453.273C718.768 453.539 718.492 453.746 718.164 453.895C717.836 454.043 717.455 454.117 717.021 454.117C716.561 454.117 716.158 454.023 715.814 453.836C715.471 453.645 715.186 453.391 714.959 453.074C714.732 452.758 714.562 452.406 714.449 452.02C714.336 451.633 714.279 451.24 714.279 450.842V450.332C714.279 449.73 714.34 449.141 714.461 448.562C714.582 447.984 714.791 447.461 715.088 446.992C715.389 446.523 715.805 446.15 716.336 445.873C716.867 445.596 717.545 445.457 718.369 445.457Z" fill="white"/>
<path d="M61.5 436.5H741.5" stroke="#EEEEEE" stroke-dasharray="4 2"/>
<path d="M61.5 336.75H741.5" stroke="#EEEEEE" stroke-dasharray="4 2"/>
<path d="M61.5 237H741.5" stroke="#EEEEEE" stroke-dasharray="4 2"/>
<path d="M61.5 137.25H741.5" stroke="#EEEEEE" stroke-dasharray="4 2"/>
<path d="M61.5 37.5H741.5" stroke="#EEEEEE" stroke-dasharray="4 2"/>
<path d="M62 37V437" stroke="#EEEEEE" stroke-dasharray="4 2"/>
<path d="M107.267 37V437" stroke="#EEEEEE" stroke-dasharray="4 2"/>
<path d="M152.533 37V437" stroke="#EEEEEE" stroke-dasharray="4 2"/>
<path d="M197.8 37V437" stroke="#EEEEEE" stroke-dasharray="4 2"/>
<path d="M243.067 37V437" stroke="#EEEEEE" stroke-dasharray="4 2"/>
<path d="M288.333 37V437" stroke="#EEEEEE" stroke-dasharray="4 2"/>
<path d="M333.6 37V437" stroke="#EEEEEE" stroke-dasharray="4 2"/>
<path d="M378.867 37V437" stroke="#EEEEEE" stroke-dasharray="4 2"/>
<path d="M424.133 37V437" stroke="#EEEEEE" stroke-dasharray="4 2"/>
<path d="M469.4 37V437" stroke="#EEEEEE" stroke-dasharray="4 2"/>
<path d="M514.667 37V437" stroke="#EEEEEE" stroke-dasharray="4 2"/>
<path d="M559.933 37V437" stroke="#EEEEEE" stroke-dasharray="4 2"/>
<path d="M605.2 37V437" stroke="#EEEEEE" stroke-dasharray="4 2"/>
<path d="M650.467 37V437" stroke="#EEEEEE" stroke-dasharray="4 2"/>
<path d="M695.733 37V437" stroke="#EEEEEE" stroke-dasharray="4 2"/>
<path d="M741 37V437" stroke="#EEEEEE" stroke-dasharray="4 2"/>
<path opacity="0.2" fill-rule="evenodd" clip-rule="evenodd" d="M61.5 437L123.318 429L185.136 425L246.955 417L308.773 397L370.591 377L432.409 333L494.227 305L556.045 253L617.864 193L679.682 105L741.5 37V437H61.5Z" fill="#E63564"/>
<path d="M61.5 437L123.318 429L185.136 425L246.955 417L308.773 397L370.591 377L432.409 333L494.227 305L556.045 253L617.864 193L679.682 105L741.5 37" stroke="#E63564" stroke-width="2" stroke-linejoin="round"/>
<defs>
<linearGradient id="paint0_linear_462_1190" x1="0.5" y1="0" x2="439.777" y2="697.25" gradientUnits="userSpaceOnUse">
<stop stop-color="#333745"/>
<stop offset="1" stop-color="#1A1D27"/>
</linearGradient>
</defs>
</svg>
