<svg width="20" height="20" viewBox="0 0 20 20" fill="none" xmlns="http://www.w3.org/2000/svg">
<path d="M2.5139 19.9401C1.84368 19.9401 1.21742 19.7092 0.766941 19.2807C0.195608 18.7423 -0.079071 17.9293 0.0198135 17.0503L0.426339 13.4905C0.503249 12.8203 0.909775 11.9303 1.38222 11.4469L10.4027 1.89907C12.6551 -0.485148 15.0063 -0.55107 17.3905 1.7013C19.7748 3.95367 19.8407 6.30492 17.5883 8.68914L8.56784 18.2369C8.10638 18.7314 7.24937 19.1928 6.57916 19.3028L3.04129 19.907C2.8545 19.918 2.6897 19.9401 2.5139 19.9401ZM13.9296 1.69031C13.0836 1.69031 12.3474 2.2177 11.6003 3.00877L2.57982 12.5677C2.36008 12.7984 2.10738 13.3478 2.06343 13.6664L1.6569 17.2261C1.61295 17.5887 1.70085 17.8853 1.89862 18.0721C2.09639 18.2589 2.39304 18.3248 2.75562 18.2699L6.29349 17.6657C6.61212 17.6108 7.1395 17.325 7.35924 17.0943L16.3797 7.54648C17.7421 6.09617 18.2366 4.75573 16.2479 2.88791C15.3689 2.0419 14.6108 1.69031 13.9296 1.69031Z" fill="#292D32"/>
<path d="M15.4792 10.524C15.4572 10.524 15.4243 10.524 15.4023 10.524C11.9743 10.1834 9.21651 7.57954 8.68913 4.17351C8.6232 3.72304 8.93084 3.30553 9.38132 3.22862C9.83179 3.16269 10.2493 3.47033 10.3262 3.92081C10.7437 6.5797 12.8972 8.62332 15.5781 8.88701C16.0286 8.93096 16.3582 9.33748 16.3142 9.7879C16.2593 10.2054 15.8967 10.524 15.4792 10.524Z" fill="#292D32"/>
</svg>
