<svg width="27" height="28" viewBox="0 0 27 28" fill="none" xmlns="http://www.w3.org/2000/svg">
<path d="M21.0187 7.94923C20.9437 7.93673 20.8563 7.93673 20.7813 7.94923C19.0565 7.88674 17.6816 6.47441 17.6816 4.72462C17.6816 2.93734 19.119 1.50002 20.9063 1.50002C22.6935 1.50002 24.1309 2.94984 24.1309 4.72462C24.1184 6.47441 22.7435 7.88674 21.0187 7.94923Z" stroke="#EEEEEE" stroke-width="1.8" stroke-linecap="round" stroke-linejoin="round"/>
<path d="M19.7304 17.048C21.4427 17.3354 23.3299 17.0355 24.6548 16.1481C26.4171 14.9732 26.4171 13.0485 24.6548 11.8736C23.3174 10.9862 21.4052 10.6863 19.6929 10.9862" stroke="#EEEEEE" stroke-width="1.8" stroke-linecap="round" stroke-linejoin="round"/>
<path d="M5.98126 7.94923C6.05625 7.93673 6.14374 7.93673 6.21873 7.94923C7.94352 7.88674 9.31836 6.47441 9.31836 4.72462C9.31836 2.93734 7.88103 1.50002 6.09375 1.50002C4.30647 1.50002 2.86914 2.94984 2.86914 4.72462C2.88164 6.47441 4.25647 7.88674 5.98126 7.94923Z" stroke="#EEEEEE" stroke-width="1.8" stroke-linecap="round" stroke-linejoin="round"/>
<path d="M7.26956 17.048C5.55726 17.3354 3.66999 17.0355 2.34515 16.1481C0.582866 14.9732 0.582866 13.0485 2.34515 11.8736C3.68249 10.9862 5.59476 10.6863 7.30705 10.9862" stroke="#EEEEEE" stroke-width="1.8" stroke-linecap="round" stroke-linejoin="round"/>
<path d="M13.5197 17.2856C13.4447 17.2731 13.3573 17.2731 13.2823 17.2856C11.5575 17.2231 10.1826 15.8108 10.1826 14.061C10.1826 12.2737 11.62 10.8363 13.4073 10.8363C15.1945 10.8363 16.6319 12.2862 16.6319 14.061C16.6194 15.8108 15.2445 17.2356 13.5197 17.2856Z" stroke="#EEEEEE" stroke-width="1.8" stroke-linecap="round" stroke-linejoin="round"/>
<path d="M17.1574 21.2225C15.1701 19.8977 11.883 19.8977 9.88324 21.2225C8.12095 22.3974 8.12095 24.3221 9.88324 25.497C11.883 26.8343 15.1576 26.8343 17.1574 25.497" stroke="#EEEEEE" stroke-width="1.8" stroke-linecap="round" stroke-linejoin="round"/>
</svg>
