<svg width="33" height="33" viewBox="0 0 33 33" fill="none" xmlns="http://www.w3.org/2000/svg">
<path d="M24.328 0H17.8814C11.88 0 9.20935 2.6707 9.20935 8.67209V10.3605C9.20935 10.9898 9.73121 11.5116 10.3605 11.5116H15.1187C19.8768 11.5116 21.4884 13.1233 21.4884 17.8814V22.6395C21.4884 23.2688 22.0103 23.7907 22.6396 23.7907H24.328C30.3294 23.7907 33.0001 21.12 33.0001 15.1186V8.67209C33.0001 2.6707 30.3294 0 24.328 0ZM11.5117 9.2093V8.67209C11.5117 3.91395 13.1233 2.30233 17.8814 2.30233H24.328C29.0861 2.30233 30.6977 3.91395 30.6977 8.67209V15.1186C30.6977 19.8767 29.0861 21.4884 24.328 21.4884H23.7907V17.8814C23.7907 11.88 21.1201 9.2093 15.1187 9.2093H11.5117Z" fill="white"/>
<path d="M15.1186 9.20947H8.67209C2.6707 9.20947 0 11.8802 0 17.8816V24.3281C0 30.3295 2.6707 33.0002 8.67209 33.0002H15.1186C21.12 33.0002 23.7907 30.3295 23.7907 24.3281V17.8816C23.7907 11.8802 21.12 9.20947 15.1186 9.20947ZM8.67209 30.6978C3.91395 30.6978 2.30233 29.0862 2.30233 24.3281V17.8816C2.30233 13.1234 3.91395 11.5118 8.67209 11.5118H15.1186C19.8767 11.5118 21.4884 13.1234 21.4884 17.8816V24.3281C21.4884 29.0862 19.8767 30.6978 15.1186 30.6978H8.67209Z" fill="white"/>
<path d="M10.4058 25.2487C10.1142 25.2487 9.82253 25.1412 9.5923 24.911L6.59928 21.918C6.15416 21.4729 6.15416 20.7361 6.59928 20.291C7.0444 19.8459 7.78114 19.8459 8.22626 20.291L10.4058 22.4705L15.563 17.3133C16.0081 16.8682 16.7448 16.8682 17.1899 17.3133C17.635 17.7584 17.635 18.4952 17.1899 18.9403L11.2039 24.911C10.989 25.1259 10.6974 25.2487 10.4058 25.2487Z" fill="white"/>
</svg>
