<svg width="28" height="29" viewBox="0 0 28 29" fill="none" xmlns="http://www.w3.org/2000/svg">
<path d="M4.93851 12.2625C4.68554 12.2625 4.41925 12.156 4.23285 11.9696C3.95324 11.6766 3.86004 11.2506 4.01982 10.8778L6.49631 4.96613C6.54956 4.8463 6.57619 4.76641 6.61614 4.69984C8.58668 0.159611 11.1031 -0.945493 15.5501 0.758762C15.8031 0.851963 16.0028 1.05168 16.1093 1.30466C16.2159 1.55763 16.2159 1.83723 16.1093 2.09021L12.2082 11.144C12.0484 11.5168 11.6889 11.7432 11.2895 11.7432H7.49489C6.73597 11.7432 6.01698 11.8897 5.32463 12.1826C5.2048 12.2359 5.07166 12.2625 4.93851 12.2625ZM12.1416 1.99701C10.4906 1.99701 9.47874 3.07548 8.4269 5.52534C8.41359 5.56528 8.38696 5.60523 8.37364 5.64517L6.62945 9.78597C6.92237 9.75934 7.20197 9.74602 7.49489 9.74602H10.6238L13.8326 2.28992C13.2068 2.09021 12.6476 1.99701 12.1416 1.99701Z" fill="#EEEEEE"/>
<path d="M22.3685 12.0101C22.2753 12.0101 22.1688 11.9968 22.0756 11.9701C21.5696 11.8237 21.0371 11.7438 20.4779 11.7438H11.2909C10.9581 11.7438 10.6385 11.5708 10.4521 11.2912C10.279 11.0116 10.2391 10.6521 10.3722 10.3458L14.2334 1.3852C14.4331 0.905878 15.0189 0.573016 15.5116 0.746104C15.6713 0.799362 15.8178 0.865934 15.9776 0.932507L19.1198 2.25064C20.9572 3.00956 22.1821 3.80843 22.981 4.76707C23.1407 4.95347 23.2739 5.15319 23.407 5.36622C23.5535 5.59257 23.6866 5.85886 23.7798 6.13846C23.8198 6.23166 23.8864 6.40475 23.9263 6.59115C24.2991 7.85603 24.1127 9.4005 23.3138 11.3977C23.1407 11.7704 22.7679 12.0101 22.3685 12.0101ZM12.8087 9.74668H20.4912C20.9172 9.74668 21.33 9.78662 21.7427 9.85319C22.1155 8.69484 22.1954 7.80277 21.9824 7.08379C21.9558 6.96396 21.9291 6.9107 21.9158 6.85744C21.8359 6.64441 21.7827 6.52458 21.7161 6.41806C21.6229 6.2716 21.5563 6.15177 21.4498 6.03194C20.8773 5.33959 19.8654 4.7005 18.3475 4.07472L15.7246 2.98293L12.8087 9.74668Z" fill="#EEEEEE"/>
<path d="M19.186 28.626H8.80073C8.42792 28.626 8.08175 28.5993 7.73557 28.5594C3.0622 28.2532 0.399303 25.577 0.0797558 20.8503C0.0398124 20.5574 0.0131836 20.1979 0.0131836 19.8384V17.2421C0.0131836 14.2464 1.79732 11.5435 4.55341 10.3452C5.49874 9.94581 6.48401 9.74609 7.50922 9.74609H20.5041C21.2631 9.74609 21.9954 9.85261 22.6744 10.0656C25.8033 11.011 28.0002 13.9667 28.0002 17.2421V19.8384C28.0002 20.1313 27.9869 20.4109 27.9735 20.6772C27.6806 25.8832 24.6449 28.626 19.186 28.626ZM7.49591 11.7432C6.73699 11.7432 6.018 11.8897 5.32565 12.1826C3.30185 13.0614 1.99704 15.0452 1.99704 17.2421V19.8384C1.99704 20.118 2.02367 20.3976 2.0503 20.6639C2.30327 24.4585 4.16729 26.3226 7.90866 26.5755C8.24152 26.6155 8.50781 26.6421 8.78741 26.6421H19.1727C23.5665 26.6421 25.7234 24.7115 25.9364 20.584C25.9497 20.3444 25.9631 20.1047 25.9631 19.8384V17.2421C25.9631 14.8322 24.352 12.6752 22.0619 11.9696C21.556 11.8231 21.0234 11.7432 20.4642 11.7432H7.49591Z" fill="#EEEEEE"/>
<path d="M0.998585 18.2405C0.452692 18.2405 0 17.7879 0 17.242V13.3408C0 9.14677 2.96912 5.52524 7.06998 4.72637C7.42947 4.6598 7.80227 4.79294 8.04193 5.07255C8.26828 5.35215 8.33485 5.75158 8.18839 6.08445L5.85836 11.6499C5.75185 11.8896 5.56544 12.076 5.3391 12.1825C3.3153 13.0612 2.01048 15.0451 2.01048 17.242C1.99717 17.7879 1.55779 18.2405 0.998585 18.2405ZM5.47224 7.41589C3.76799 8.37453 2.52975 10.0522 2.14363 12.0094C2.72946 11.4102 3.4085 10.9043 4.18074 10.5315L5.47224 7.41589Z" fill="#EEEEEE"/>
<path d="M26.9875 18.2406C26.4416 18.2406 25.9889 17.7879 25.9889 17.242C25.9889 14.8321 24.3779 12.6752 22.0878 11.9695C21.8215 11.8896 21.5951 11.7032 21.4753 11.4502C21.3555 11.1972 21.3422 10.9043 21.4487 10.6513C22.0745 9.09356 22.2342 7.96183 21.9813 7.08307C21.9546 6.96324 21.928 6.90999 21.9147 6.85673C21.7416 6.47061 21.8348 6.01792 22.141 5.725C22.4473 5.43208 22.9133 5.36551 23.2861 5.56522C26.1886 7.08307 27.9861 10.0655 27.9861 13.3409V17.242C27.9861 17.7879 27.5334 18.2406 26.9875 18.2406ZM23.6456 10.4383C24.4844 10.8244 25.23 11.3703 25.8558 12.0228C25.6028 10.7179 24.977 9.53293 24.0583 8.60092C23.9918 9.16013 23.8586 9.77259 23.6456 10.4383Z" fill="#EEEEEE"/>
</svg>
