<svg width="58" height="47" viewBox="0 0 58 47" fill="none" xmlns="http://www.w3.org/2000/svg">
<path d="M42.3 47H15.4429C6.204 47 0 40.796 0 31.5571V15.4429C0 6.204 6.204 0 15.4429 0H42.3C51.5389 0 57.7429 6.204 57.7429 15.4429V31.5571C57.7429 40.796 51.5389 47 42.3 47ZM15.4429 4.02857C8.51371 4.02857 4.02857 8.51371 4.02857 15.4429V31.5571C4.02857 38.4863 8.51371 42.9714 15.4429 42.9714H42.3C49.2291 42.9714 53.7143 38.4863 53.7143 31.5571V15.4429C53.7143 8.51371 49.2291 4.02857 42.3 4.02857H15.4429Z" fill="#E63462"/>
<path d="M25.0835 32.9808C24.3047 32.9808 23.5527 32.7928 22.8811 32.4168C21.3234 31.5305 20.4102 29.7311 20.4102 27.5019V19.5522C20.4102 17.3231 21.2965 15.5237 22.8811 14.6374C24.439 13.7511 26.453 13.9122 28.3598 15.0671L34.9938 19.0419C36.8201 20.1431 37.8673 21.7813 37.8673 23.5271C37.8673 25.2728 36.8201 26.9111 34.9938 28.0122L28.3598 31.9871C27.2587 32.6316 26.131 32.9808 25.0835 32.9808ZM25.0835 18.0482C24.9761 18.0482 24.8953 18.0751 24.8416 18.1019C24.6536 18.2093 24.4387 18.6928 24.4387 19.5253V27.4751C24.4387 28.2808 24.6536 28.7642 24.8416 28.8985C25.0564 29.0059 25.567 28.9522 26.2653 28.5225L32.8987 24.5476C33.5701 24.1448 33.8121 23.7419 33.8121 23.5002C33.8121 23.2585 33.5701 22.8825 32.8987 22.4528L26.2653 18.4779C25.7818 18.1825 25.3521 18.0482 25.0835 18.0482Z" fill="#E63462"/>
</svg>
