<svg width="29" height="30" viewBox="0 0 29 30" fill="none" xmlns="http://www.w3.org/2000/svg">
<path d="M1.5166 1.71582H3.82802C5.26268 1.71582 6.3918 2.95122 6.27224 4.3726L5.16968 17.6034C4.9837 19.7687 6.69732 21.6284 8.87588 21.6284H23.0233C24.9362 21.6284 26.6099 20.0609 26.7561 18.1613L27.4734 8.19837C27.6328 5.99324 25.959 4.19991 23.7406 4.19991H6.59107" stroke="white" stroke-width="2" stroke-miterlimit="10" stroke-linecap="round" stroke-linejoin="round"/>
<path d="M20.4461 28.2839C21.3633 28.2839 22.1066 27.5405 22.1066 26.6234C22.1066 25.7063 21.3633 24.9629 20.4461 24.9629C19.529 24.9629 18.7856 25.7063 18.7856 26.6234C18.7856 27.5405 19.529 28.2839 20.4461 28.2839Z" stroke="white" stroke-width="1.5" stroke-miterlimit="10" stroke-linecap="round" stroke-linejoin="round"/>
<path d="M9.81918 28.2839C10.7363 28.2839 11.4797 27.5405 11.4797 26.6234C11.4797 25.7063 10.7363 24.9629 9.81918 24.9629C8.90211 24.9629 8.15869 25.7063 8.15869 26.6234C8.15869 27.5405 8.90211 28.2839 9.81918 28.2839Z" stroke="white" stroke-width="1.5" stroke-miterlimit="10" stroke-linecap="round" stroke-linejoin="round"/>
<path d="M10.8154 9.68652H26.7561" stroke="white" stroke-width="2" stroke-miterlimit="10" stroke-linecap="round" stroke-linejoin="round"/>
</svg>
