<svg width="35" height="36" viewBox="0 0 35 36" fill="none" xmlns="http://www.w3.org/2000/svg">
<path d="M23.0311 35.5354H22.8092C15.2281 35.5354 11.5742 32.5474 10.9425 25.8542C10.8742 25.1542 11.3864 24.5224 12.1035 24.4541C12.7865 24.3858 13.4353 24.9151 13.5036 25.6152C13.9988 30.9765 16.5258 32.9742 22.8262 32.9742H23.0482C29.9975 32.9742 32.4562 30.5155 32.4562 23.5663V12.4337C32.4562 5.48447 29.9975 3.02576 23.0482 3.02576H22.8262C16.4916 3.02576 13.9646 5.05761 13.5036 10.5214C13.4183 11.2215 12.8207 11.7508 12.1035 11.6825C11.3864 11.6312 10.8742 10.9995 10.9254 10.2994C11.5059 3.50384 15.1769 0.4646 22.8092 0.4646H23.0311C31.4147 0.4646 35.0003 4.05022 35.0003 12.4337V23.5663C35.0003 31.9498 31.4147 35.5354 23.0311 35.5354Z" fill="url(#paint0_linear_168_2479)"/>
<path d="M22.6189 19.2806H3.18829C2.48824 19.2806 1.90771 18.7 1.90771 18C1.90771 17.3 2.48824 16.7194 3.18829 16.7194H22.6189C23.3189 16.7194 23.8994 17.3 23.8994 18C23.8994 18.7 23.3189 19.2806 22.6189 19.2806Z" fill="url(#paint1_linear_168_2479)"/>
<path d="M6.99623 25.0007C6.67181 25.0007 6.3474 24.8812 6.09128 24.625L0.371368 18.9051C-0.123789 18.41 -0.123789 17.5904 0.371368 17.0952L6.09128 11.3753C6.58644 10.8801 7.40601 10.8801 7.90117 11.3753C8.39633 11.8705 8.39633 12.69 7.90117 13.1852L3.08619 18.0002L7.90117 22.8152C8.39633 23.3103 8.39633 24.1299 7.90117 24.625C7.66213 24.8812 7.32064 25.0007 6.99623 25.0007Z" fill="url(#paint2_linear_168_2479)"/>
<defs>
<linearGradient id="paint0_linear_168_2479" x1="10.9219" y1="0.4646" x2="43.6511" y2="22.9353" gradientUnits="userSpaceOnUse">
<stop stop-color="#333745"/>
<stop offset="1" stop-color="#1A1D27"/>
</linearGradient>
<linearGradient id="paint1_linear_168_2479" x1="1.90771" y1="16.7194" x2="2.49628" y2="21.7732" gradientUnits="userSpaceOnUse">
<stop stop-color="#333745"/>
<stop offset="1" stop-color="#1A1D27"/>
</linearGradient>
<linearGradient id="paint2_linear_168_2479" x1="0" y1="11.0039" x2="12.2618" y2="18.2511" gradientUnits="userSpaceOnUse">
<stop stop-color="#333745"/>
<stop offset="1" stop-color="#1A1D27"/>
</linearGradient>
</defs>
</svg>
