<svg width="42" height="42" viewBox="0 0 42 42" fill="none" xmlns="http://www.w3.org/2000/svg">
<path d="M18.669 26.6438C18.2862 26.6438 17.9225 26.4907 17.6546 26.2227L13.0229 21.5909C12.4678 21.0359 12.4678 20.1172 13.0229 19.5621C13.5779 19.0071 14.4966 19.0071 15.0517 19.5621L18.669 23.1795L26.899 14.9495C27.4541 14.3944 28.3728 14.3944 28.9279 14.9495C29.4829 15.5045 29.4829 16.4232 28.9279 16.9782L19.6834 26.2227C19.4154 26.4907 19.0518 26.6438 18.669 26.6438Z" fill="#333745"/>
<path d="M20.9857 41.1513C19.7799 41.1513 18.5741 40.7494 17.6362 39.9455L14.6121 37.3425C14.3058 37.0746 13.5402 36.8066 13.1383 36.8066H9.84629C7.01361 36.8066 4.71685 34.5099 4.71685 31.6772V28.4043C4.71685 28.0024 4.44889 27.2559 4.18093 26.9497L1.59707 23.9065C0.0276191 22.0499 0.0276191 19.1215 1.59707 17.265L4.18093 14.2218C4.44889 13.9155 4.71685 13.1691 4.71685 12.7672V9.47513C4.71685 6.64245 7.01361 4.34569 9.84629 4.34569H13.1575C13.5594 4.34569 14.325 4.05859 14.6312 3.80978L17.6554 1.20678C19.531 -0.400957 22.4594 -0.400957 24.3351 1.20678L27.3592 3.80978C27.6654 4.07773 28.431 4.34569 28.8329 4.34569H32.0867C34.9194 4.34569 37.2161 6.64245 37.2161 9.47513V12.7289C37.2161 13.1308 37.5032 13.8964 37.7712 14.2026L40.3742 17.2267C41.9819 19.1024 41.9819 22.0308 40.3742 23.9065L37.7712 26.9305C37.5032 27.2368 37.2161 28.0024 37.2161 28.4043V31.658C37.2161 34.4907 34.9194 36.7875 32.0867 36.7875H28.8329C28.431 36.7875 27.6654 37.0746 27.3592 37.3234L24.3351 39.9264C23.3973 40.7494 22.1915 41.1513 20.9857 41.1513ZM9.84629 7.21664C8.60221 7.21664 7.5878 8.23105 7.5878 9.47513V12.748C7.5878 13.839 7.07103 15.2362 6.36286 16.0592L3.779 19.1024C3.10911 19.8871 3.10911 21.246 3.779 22.0308L6.36286 25.074C7.07103 25.9161 7.5878 27.2942 7.5878 28.3852V31.658C7.5878 32.9021 8.60221 33.9165 9.84629 33.9165H13.1575C14.2676 33.9165 15.6648 34.4333 16.5069 35.1606L19.531 37.7636C20.3158 38.4335 21.6938 38.4335 22.4786 37.7636L25.5026 35.1606C26.3448 34.4524 27.742 33.9165 28.8521 33.9165H32.1058C33.3499 33.9165 34.3643 32.9021 34.3643 31.658V28.4043C34.3643 27.2942 34.8811 25.897 35.6084 25.0548L38.2114 22.0308C38.8813 21.246 38.8813 19.868 38.2114 19.0833L35.6084 16.0592C34.8811 15.217 34.3643 13.8198 34.3643 12.7097V9.47513C34.3643 8.23105 33.3499 7.21664 32.1058 7.21664H28.8521C27.742 7.21664 26.3448 6.69987 25.5026 5.97256L22.4786 3.36956C21.6938 2.69967 20.3158 2.69967 19.531 3.36956L16.5069 5.9917C15.6648 6.69987 14.2484 7.21664 13.1575 7.21664H9.84629Z" fill="#333745"/>
</svg>
